%TF.GenerationSoftware,KiCad,Pcbnew,7.0.2*%
%TF.CreationDate,2023-07-09T20:18:23+08:00*%
%TF.ProjectId,z-match-2,7a2d6d61-7463-4682-9d32-2e6b69636164,rev?*%
%TF.SameCoordinates,Original*%
%TF.FileFunction,Soldermask,Bot*%
%TF.FilePolarity,Negative*%
%FSLAX46Y46*%
G04 Gerber Fmt 4.6, Leading zero omitted, Abs format (unit mm)*
G04 Created by KiCad (PCBNEW 7.0.2) date 2023-07-09 20:18:23*
%MOMM*%
%LPD*%
G01*
G04 APERTURE LIST*
G04 Aperture macros list*
%AMHorizOval*
0 Thick line with rounded ends*
0 $1 width*
0 $2 $3 position (X,Y) of the first rounded end (center of the circle)*
0 $4 $5 position (X,Y) of the second rounded end (center of the circle)*
0 Add line between two ends*
20,1,$1,$2,$3,$4,$5,0*
0 Add two circle primitives to create the rounded ends*
1,1,$1,$2,$3*
1,1,$1,$4,$5*%
G04 Aperture macros list end*
%ADD10R,1.600000X1.600000*%
%ADD11O,1.600000X1.600000*%
%ADD12O,3.175000X1.524000*%
%ADD13R,1.800000X1.800000*%
%ADD14C,1.800000*%
%ADD15C,2.400000*%
%ADD16O,2.400000X2.400000*%
%ADD17C,1.600000*%
%ADD18C,2.600000*%
%ADD19O,4.000000X1.500000*%
%ADD20C,2.000000*%
%ADD21C,2.800000*%
%ADD22C,1.524000*%
%ADD23HorizOval,1.524000X-0.088213X-0.500282X0.088213X0.500282X0*%
G04 APERTURE END LIST*
D10*
X89800000Y-130610000D03*
D11*
X89800000Y-122990000D03*
D12*
X73000000Y-127400000D03*
X80500000Y-125900000D03*
X80500000Y-133400000D03*
X65500000Y-125900000D03*
X65500000Y-131400000D03*
D13*
X89800000Y-137540000D03*
D14*
X89800000Y-135000000D03*
D15*
X119880000Y-92000000D03*
D16*
X135120000Y-92000000D03*
D17*
X109800000Y-86920000D03*
D11*
X109800000Y-97080000D03*
D15*
X119880000Y-104000000D03*
D16*
X135120000Y-104000000D03*
D12*
X127000000Y-127400000D03*
X134500000Y-125900000D03*
X134500000Y-133400000D03*
X119500000Y-125900000D03*
X119500000Y-131400000D03*
D15*
X119880000Y-86000000D03*
D16*
X135120000Y-86000000D03*
D15*
X127000000Y-66000000D03*
D18*
X123000000Y-62000000D03*
X123000000Y-70000000D03*
X131000000Y-62000000D03*
X131000000Y-70000000D03*
D15*
X73000000Y-66000000D03*
D18*
X69000000Y-62000000D03*
X69000000Y-70000000D03*
X77000000Y-62000000D03*
X77000000Y-70000000D03*
D15*
X119880000Y-98000000D03*
D16*
X135120000Y-98000000D03*
D19*
X82215000Y-82182500D03*
X82215000Y-89682500D03*
X82215000Y-107682500D03*
X82215000Y-115182500D03*
D20*
X93465000Y-114182500D03*
X98015000Y-88182500D03*
X99115000Y-89982500D03*
X66715000Y-87432500D03*
X68215000Y-85682500D03*
X86965000Y-117182500D03*
X101215000Y-97432500D03*
X91215000Y-81932500D03*
X90465000Y-115932500D03*
X70465000Y-83682500D03*
D21*
X102500000Y-62500000D03*
X97500000Y-62500000D03*
X104700000Y-79000000D03*
X100000000Y-79000000D03*
X95300000Y-79000000D03*
X104700000Y-75200000D03*
X100000000Y-75200000D03*
X95300000Y-75200000D03*
X97500000Y-137500000D03*
X102500000Y-137500000D03*
X95300000Y-121000000D03*
X100000000Y-121000000D03*
X104700000Y-121000000D03*
X95300000Y-124800000D03*
X100000000Y-124800000D03*
X104700000Y-124800000D03*
D15*
X135120000Y-116000000D03*
D16*
X119880000Y-116000000D03*
D22*
X114450000Y-82450000D03*
D23*
X119700000Y-77700000D03*
D22*
X111950000Y-82450000D03*
D15*
X135120000Y-110000000D03*
D16*
X119880000Y-110000000D03*
G36*
X141943039Y-60019685D02*
G01*
X141988794Y-60072489D01*
X142000000Y-60124000D01*
X142000000Y-139876000D01*
X141980315Y-139943039D01*
X141927511Y-139988794D01*
X141876000Y-140000000D01*
X139189000Y-140000000D01*
X139121961Y-139980315D01*
X139076206Y-139927511D01*
X139065000Y-139876000D01*
X139065000Y-60124000D01*
X139084685Y-60056961D01*
X139137489Y-60011206D01*
X139189000Y-60000000D01*
X141876000Y-60000000D01*
X141943039Y-60019685D01*
G37*
G36*
X60903039Y-60019685D02*
G01*
X60948794Y-60072489D01*
X60960000Y-60124000D01*
X60960000Y-139876000D01*
X60940315Y-139943039D01*
X60887511Y-139988794D01*
X60836000Y-140000000D01*
X58124000Y-140000000D01*
X58056961Y-139980315D01*
X58011206Y-139927511D01*
X58000000Y-139876000D01*
X58000000Y-60124000D01*
X58019685Y-60056961D01*
X58072489Y-60011206D01*
X58124000Y-60000000D01*
X60836000Y-60000000D01*
X60903039Y-60019685D01*
G37*
M02*
