%TF.GenerationSoftware,KiCad,Pcbnew,7.0.2*%
%TF.CreationDate,2023-07-09T20:18:23+08:00*%
%TF.ProjectId,z-match-2,7a2d6d61-7463-4682-9d32-2e6b69636164,rev?*%
%TF.SameCoordinates,Original*%
%TF.FileFunction,Copper,L2,Bot*%
%TF.FilePolarity,Positive*%
%FSLAX46Y46*%
G04 Gerber Fmt 4.6, Leading zero omitted, Abs format (unit mm)*
G04 Created by KiCad (PCBNEW 7.0.2) date 2023-07-09 20:18:23*
%MOMM*%
%LPD*%
G01*
G04 APERTURE LIST*
G04 Aperture macros list*
%AMHorizOval*
0 Thick line with rounded ends*
0 $1 width*
0 $2 $3 position (X,Y) of the first rounded end (center of the circle)*
0 $4 $5 position (X,Y) of the second rounded end (center of the circle)*
0 Add line between two ends*
20,1,$1,$2,$3,$4,$5,0*
0 Add two circle primitives to create the rounded ends*
1,1,$1,$2,$3*
1,1,$1,$4,$5*%
G04 Aperture macros list end*
%TA.AperFunction,ComponentPad*%
%ADD10R,1.600000X1.600000*%
%TD*%
%TA.AperFunction,ComponentPad*%
%ADD11O,1.600000X1.600000*%
%TD*%
%TA.AperFunction,ComponentPad*%
%ADD12O,3.175000X1.524000*%
%TD*%
%TA.AperFunction,ComponentPad*%
%ADD13R,1.800000X1.800000*%
%TD*%
%TA.AperFunction,ComponentPad*%
%ADD14C,1.800000*%
%TD*%
%TA.AperFunction,ComponentPad*%
%ADD15C,2.400000*%
%TD*%
%TA.AperFunction,ComponentPad*%
%ADD16O,2.400000X2.400000*%
%TD*%
%TA.AperFunction,ComponentPad*%
%ADD17C,1.600000*%
%TD*%
%TA.AperFunction,ComponentPad*%
%ADD18C,2.600000*%
%TD*%
%TA.AperFunction,ComponentPad*%
%ADD19C,2.000000*%
%TD*%
%TA.AperFunction,ComponentPad*%
%ADD20C,2.800000*%
%TD*%
%TA.AperFunction,ComponentPad*%
%ADD21C,1.524000*%
%TD*%
%TA.AperFunction,ComponentPad*%
%ADD22HorizOval,1.524000X-0.088213X-0.500282X0.088213X0.500282X0*%
%TD*%
%TA.AperFunction,Conductor*%
%ADD23C,1.000000*%
%TD*%
G04 APERTURE END LIST*
D10*
X89800000Y-130610000D03*
D11*
X89800000Y-122990000D03*
D12*
X73000000Y-127400000D03*
X80500000Y-125900000D03*
X80500000Y-133400000D03*
X65500000Y-125900000D03*
X65500000Y-131400000D03*
D13*
X89800000Y-137540000D03*
D14*
X89800000Y-135000000D03*
D15*
X119880000Y-92000000D03*
D16*
X135120000Y-92000000D03*
D17*
X109800000Y-86920000D03*
D11*
X109800000Y-97080000D03*
D15*
X119880000Y-104000000D03*
D16*
X135120000Y-104000000D03*
D12*
X127000000Y-127400000D03*
X134500000Y-125900000D03*
X134500000Y-133400000D03*
X119500000Y-125900000D03*
X119500000Y-131400000D03*
D15*
X119880000Y-86000000D03*
D16*
X135120000Y-86000000D03*
D15*
X127000000Y-66000000D03*
D18*
X123000000Y-62000000D03*
X123000000Y-70000000D03*
X131000000Y-62000000D03*
X131000000Y-70000000D03*
D15*
X73000000Y-66000000D03*
D18*
X69000000Y-62000000D03*
X69000000Y-70000000D03*
X77000000Y-62000000D03*
X77000000Y-70000000D03*
D15*
X119880000Y-98000000D03*
D16*
X135120000Y-98000000D03*
D19*
X93465000Y-114182500D03*
X98015000Y-88182500D03*
X99115000Y-89982500D03*
X66715000Y-87432500D03*
X68215000Y-85682500D03*
X86965000Y-117182500D03*
X101215000Y-97432500D03*
X91215000Y-81932500D03*
X90465000Y-115932500D03*
X70465000Y-83682500D03*
D20*
X102500000Y-62500000D03*
X97500000Y-62500000D03*
X104700000Y-79000000D03*
X100000000Y-79000000D03*
X95300000Y-79000000D03*
X104700000Y-75200000D03*
X100000000Y-75200000D03*
X95300000Y-75200000D03*
X97500000Y-137500000D03*
X102500000Y-137500000D03*
X95300000Y-121000000D03*
X100000000Y-121000000D03*
X104700000Y-121000000D03*
X95300000Y-124800000D03*
X100000000Y-124800000D03*
X104700000Y-124800000D03*
D15*
X135120000Y-116000000D03*
D16*
X119880000Y-116000000D03*
D21*
X114450000Y-82450000D03*
D22*
X119700000Y-77700000D03*
D21*
X111950000Y-82450000D03*
D15*
X135120000Y-110000000D03*
D16*
X119880000Y-110000000D03*
D23*
X114450000Y-82450000D02*
X119570000Y-82450000D01*
X119570000Y-82450000D02*
X135120000Y-98000000D01*
X90800000Y-66000000D02*
X100000000Y-75200000D01*
X73000000Y-66000000D02*
X90800000Y-66000000D01*
X100000000Y-124800000D02*
X96800000Y-128000000D01*
X96800000Y-128000000D02*
X73600000Y-128000000D01*
X73600000Y-128000000D02*
X73000000Y-127400000D01*
X93465000Y-114182500D02*
X113932500Y-114182500D01*
X113932500Y-114182500D02*
X127000000Y-127250000D01*
X80615000Y-133285000D02*
X134385000Y-133285000D01*
X65512000Y-125888000D02*
X80488000Y-125888000D01*
X134385000Y-133285000D02*
X134500000Y-133400000D01*
X80500000Y-133400000D02*
X80615000Y-133285000D01*
X80488000Y-125888000D02*
X80500000Y-125900000D01*
X65500000Y-125900000D02*
X65512000Y-125888000D01*
X126820000Y-77700000D02*
X135120000Y-86000000D01*
X119700000Y-77700000D02*
X126820000Y-77700000D01*
X87965000Y-118182500D02*
X111782500Y-118182500D01*
X111782500Y-118182500D02*
X119500000Y-125900000D01*
X86965000Y-117182500D02*
X87965000Y-118182500D01*
%TA.AperFunction,Conductor*%
G36*
X68350683Y-60105185D02*
G01*
X68396438Y-60157989D01*
X68406382Y-60227147D01*
X68377357Y-60290703D01*
X68337445Y-60321220D01*
X68128803Y-60421695D01*
X68128803Y-60421696D01*
X69000000Y-61292893D01*
X69000001Y-61292893D01*
X69871196Y-60421697D01*
X69871195Y-60421695D01*
X69662555Y-60321220D01*
X69610695Y-60274398D01*
X69592382Y-60206971D01*
X69613430Y-60140347D01*
X69667156Y-60095678D01*
X69716356Y-60085500D01*
X76283644Y-60085500D01*
X76350683Y-60105185D01*
X76396438Y-60157989D01*
X76406382Y-60227147D01*
X76377357Y-60290703D01*
X76337445Y-60321220D01*
X76128803Y-60421695D01*
X76128803Y-60421696D01*
X76999999Y-61292892D01*
X77871195Y-60421696D01*
X77871195Y-60421695D01*
X77662555Y-60321220D01*
X77610695Y-60274398D01*
X77592382Y-60206971D01*
X77613430Y-60140347D01*
X77667156Y-60095678D01*
X77716356Y-60085500D01*
X122283644Y-60085500D01*
X122350683Y-60105185D01*
X122396438Y-60157989D01*
X122406382Y-60227147D01*
X122377357Y-60290703D01*
X122337445Y-60321220D01*
X122128803Y-60421695D01*
X122128803Y-60421696D01*
X123000000Y-61292893D01*
X123000001Y-61292893D01*
X123871196Y-60421697D01*
X123871195Y-60421695D01*
X123662555Y-60321220D01*
X123610695Y-60274398D01*
X123592382Y-60206971D01*
X123613430Y-60140347D01*
X123667156Y-60095678D01*
X123716356Y-60085500D01*
X130283644Y-60085500D01*
X130350683Y-60105185D01*
X130396438Y-60157989D01*
X130406382Y-60227147D01*
X130377357Y-60290703D01*
X130337445Y-60321220D01*
X130128803Y-60421695D01*
X130128803Y-60421696D01*
X130999999Y-61292892D01*
X131871195Y-60421696D01*
X131871195Y-60421695D01*
X131662555Y-60321220D01*
X131610695Y-60274398D01*
X131592382Y-60206971D01*
X131613430Y-60140347D01*
X131667156Y-60095678D01*
X131716356Y-60085500D01*
X141865500Y-60085500D01*
X141932539Y-60105185D01*
X141978294Y-60157989D01*
X141989500Y-60209500D01*
X141989500Y-139790500D01*
X141969815Y-139857539D01*
X141917011Y-139903294D01*
X141865500Y-139914500D01*
X58134500Y-139914500D01*
X58067461Y-139894815D01*
X58021706Y-139842011D01*
X58010500Y-139790500D01*
X58010500Y-133456869D01*
X78408172Y-133456869D01*
X78438677Y-133682067D01*
X78474303Y-133791711D01*
X78508904Y-133898200D01*
X78616592Y-134098319D01*
X78758283Y-134275993D01*
X78929418Y-134425509D01*
X78929419Y-134425510D01*
X78929422Y-134425512D01*
X79124508Y-134542071D01*
X79124509Y-134542071D01*
X79124512Y-134542073D01*
X79337270Y-134621922D01*
X79560872Y-134662500D01*
X79560873Y-134662500D01*
X81379422Y-134662500D01*
X81382199Y-134662500D01*
X81551839Y-134647232D01*
X81726840Y-134598935D01*
X81780794Y-134584045D01*
X81784936Y-134582516D01*
X82895572Y-134289599D01*
X82927194Y-134285500D01*
X88394304Y-134285500D01*
X88461343Y-134305185D01*
X88507098Y-134357989D01*
X88517042Y-134427147D01*
X88507860Y-134459310D01*
X88470844Y-134543696D01*
X88470842Y-134543700D01*
X88470843Y-134543700D01*
X88440759Y-134662500D01*
X88413865Y-134768700D01*
X88394699Y-135000000D01*
X88413865Y-135231299D01*
X88413865Y-135231301D01*
X88413866Y-135231305D01*
X88470843Y-135456300D01*
X88564076Y-135668849D01*
X88691021Y-135863153D01*
X88785803Y-135966114D01*
X88816724Y-136028767D01*
X88808864Y-136098193D01*
X88764717Y-136152348D01*
X88737906Y-136166276D01*
X88657671Y-136196202D01*
X88542454Y-136282454D01*
X88456204Y-136397668D01*
X88405910Y-136532515D01*
X88405909Y-136532517D01*
X88399500Y-136592127D01*
X88399500Y-136595448D01*
X88399500Y-136595449D01*
X88399500Y-138484560D01*
X88399500Y-138484578D01*
X88399501Y-138487872D01*
X88405909Y-138547483D01*
X88456204Y-138682331D01*
X88542454Y-138797546D01*
X88657669Y-138883796D01*
X88792517Y-138934091D01*
X88852127Y-138940500D01*
X90747872Y-138940499D01*
X90807483Y-138934091D01*
X90942331Y-138883796D01*
X91057546Y-138797546D01*
X91143796Y-138682331D01*
X91194091Y-138547483D01*
X91200500Y-138487873D01*
X91200499Y-137500000D01*
X95595146Y-137500000D01*
X95614536Y-137771089D01*
X95672306Y-138036657D01*
X95767284Y-138291306D01*
X95850036Y-138442854D01*
X95850037Y-138442854D01*
X96746593Y-137546298D01*
X96776616Y-137716567D01*
X96846059Y-137877553D01*
X96950756Y-138018185D01*
X97085062Y-138130882D01*
X97241739Y-138209568D01*
X97412338Y-138250000D01*
X97457107Y-138250000D01*
X96557144Y-139149961D01*
X96557144Y-139149962D01*
X96708694Y-139232715D01*
X96963342Y-139327693D01*
X97228910Y-139385463D01*
X97500000Y-139404853D01*
X97771089Y-139385463D01*
X98036654Y-139327694D01*
X98291307Y-139232713D01*
X98442854Y-139149962D01*
X98442854Y-139149961D01*
X97542893Y-138250000D01*
X97543684Y-138250000D01*
X97674139Y-138234752D01*
X97838891Y-138174787D01*
X97985373Y-138078445D01*
X98105688Y-137950918D01*
X98193350Y-137799082D01*
X98243634Y-137631123D01*
X98248840Y-137541733D01*
X99149961Y-138442854D01*
X99149962Y-138442854D01*
X99232713Y-138291307D01*
X99327694Y-138036654D01*
X99385463Y-137771089D01*
X99404853Y-137500000D01*
X100595146Y-137500000D01*
X100614536Y-137771089D01*
X100672306Y-138036657D01*
X100767284Y-138291306D01*
X100850036Y-138442854D01*
X100850037Y-138442854D01*
X101746593Y-137546298D01*
X101776616Y-137716567D01*
X101846059Y-137877553D01*
X101950756Y-138018185D01*
X102085062Y-138130882D01*
X102241739Y-138209568D01*
X102412338Y-138250000D01*
X102457107Y-138250000D01*
X101557144Y-139149961D01*
X101557144Y-139149962D01*
X101708694Y-139232715D01*
X101963342Y-139327693D01*
X102228910Y-139385463D01*
X102500000Y-139404853D01*
X102771089Y-139385463D01*
X103036654Y-139327694D01*
X103291307Y-139232713D01*
X103442854Y-139149962D01*
X103442854Y-139149961D01*
X102542893Y-138250000D01*
X102543684Y-138250000D01*
X102674139Y-138234752D01*
X102838891Y-138174787D01*
X102985373Y-138078445D01*
X103105688Y-137950918D01*
X103193350Y-137799082D01*
X103243634Y-137631123D01*
X103248840Y-137541734D01*
X104149961Y-138442854D01*
X104149962Y-138442854D01*
X104232713Y-138291307D01*
X104327694Y-138036654D01*
X104385463Y-137771089D01*
X104404853Y-137500000D01*
X104385463Y-137228910D01*
X104327693Y-136963342D01*
X104232715Y-136708694D01*
X104149961Y-136557144D01*
X103253405Y-137453699D01*
X103223384Y-137283433D01*
X103153941Y-137122447D01*
X103049244Y-136981815D01*
X102914938Y-136869118D01*
X102758261Y-136790432D01*
X102587662Y-136750000D01*
X102542894Y-136750000D01*
X103442854Y-135850037D01*
X103442854Y-135850036D01*
X103291306Y-135767284D01*
X103036657Y-135672306D01*
X102771089Y-135614536D01*
X102500000Y-135595146D01*
X102228910Y-135614536D01*
X101963342Y-135672306D01*
X101708690Y-135767286D01*
X101557144Y-135850035D01*
X101557144Y-135850037D01*
X102457107Y-136750000D01*
X102456316Y-136750000D01*
X102325861Y-136765248D01*
X102161109Y-136825213D01*
X102014627Y-136921555D01*
X101894312Y-137049082D01*
X101806650Y-137200918D01*
X101756366Y-137368877D01*
X101751159Y-137458267D01*
X100850037Y-136557144D01*
X100850035Y-136557144D01*
X100767286Y-136708690D01*
X100672306Y-136963342D01*
X100614536Y-137228910D01*
X100595146Y-137500000D01*
X99404853Y-137500000D01*
X99385463Y-137228910D01*
X99327693Y-136963342D01*
X99232715Y-136708694D01*
X99149961Y-136557144D01*
X98253405Y-137453700D01*
X98223384Y-137283433D01*
X98153941Y-137122447D01*
X98049244Y-136981815D01*
X97914938Y-136869118D01*
X97758261Y-136790432D01*
X97587662Y-136750000D01*
X97542894Y-136750000D01*
X98442854Y-135850037D01*
X98442854Y-135850036D01*
X98291306Y-135767284D01*
X98036657Y-135672306D01*
X97771089Y-135614536D01*
X97500000Y-135595146D01*
X97228910Y-135614536D01*
X96963342Y-135672306D01*
X96708690Y-135767286D01*
X96557144Y-135850035D01*
X96557144Y-135850037D01*
X97457107Y-136750000D01*
X97456316Y-136750000D01*
X97325861Y-136765248D01*
X97161109Y-136825213D01*
X97014627Y-136921555D01*
X96894312Y-137049082D01*
X96806650Y-137200918D01*
X96756366Y-137368877D01*
X96751159Y-137458266D01*
X95850037Y-136557144D01*
X95850035Y-136557144D01*
X95767286Y-136708690D01*
X95672306Y-136963342D01*
X95614536Y-137228910D01*
X95595146Y-137500000D01*
X91200499Y-137500000D01*
X91200499Y-136592128D01*
X91194091Y-136532517D01*
X91143796Y-136397669D01*
X91057546Y-136282454D01*
X90942331Y-136196204D01*
X90889357Y-136176446D01*
X90862093Y-136166277D01*
X90806160Y-136124405D01*
X90781743Y-136058940D01*
X90796595Y-135990668D01*
X90814194Y-135966116D01*
X90908979Y-135863153D01*
X91035924Y-135668849D01*
X91129157Y-135456300D01*
X91186134Y-135231305D01*
X91205300Y-135000000D01*
X91186134Y-134768695D01*
X91129157Y-134543700D01*
X91092140Y-134459310D01*
X91083237Y-134390010D01*
X91113214Y-134326898D01*
X91172554Y-134290011D01*
X91205696Y-134285500D01*
X132072817Y-134285500D01*
X132104431Y-134289597D01*
X133257445Y-134593619D01*
X133257836Y-134593715D01*
X133258686Y-134593868D01*
X133276023Y-134598935D01*
X133337273Y-134621923D01*
X133560872Y-134662500D01*
X133560873Y-134662500D01*
X135379422Y-134662500D01*
X135382199Y-134662500D01*
X135551839Y-134647232D01*
X135770904Y-134586774D01*
X135869764Y-134539165D01*
X135975650Y-134488174D01*
X136015378Y-134459310D01*
X136159505Y-134354596D01*
X136316552Y-134190338D01*
X136441746Y-134000677D01*
X136531062Y-133791711D01*
X136581631Y-133570154D01*
X136591827Y-133343129D01*
X136561322Y-133117932D01*
X136491096Y-132901800D01*
X136383408Y-132701681D01*
X136241717Y-132524007D01*
X136200703Y-132488174D01*
X136070581Y-132374490D01*
X136037284Y-132354596D01*
X135875492Y-132257929D01*
X135875487Y-132257926D01*
X135662729Y-132178077D01*
X135439128Y-132137500D01*
X135439127Y-132137500D01*
X133668901Y-132137500D01*
X133663299Y-132137373D01*
X133620022Y-132135415D01*
X132134666Y-132280872D01*
X132132868Y-132281088D01*
X132114011Y-132283505D01*
X132098331Y-132284500D01*
X121484827Y-132284500D01*
X121417788Y-132264815D01*
X121372033Y-132212011D01*
X121362089Y-132142853D01*
X121381340Y-132092189D01*
X121397436Y-132067802D01*
X121441746Y-132000677D01*
X121531062Y-131791711D01*
X121581631Y-131570154D01*
X121591827Y-131343129D01*
X121561322Y-131117932D01*
X121491096Y-130901800D01*
X121383408Y-130701681D01*
X121241717Y-130524007D01*
X121151751Y-130445406D01*
X121070581Y-130374490D01*
X120875487Y-130257926D01*
X120662729Y-130178077D01*
X120439128Y-130137500D01*
X120439127Y-130137500D01*
X118617801Y-130137500D01*
X118615051Y-130137747D01*
X118615039Y-130137748D01*
X118448157Y-130152768D01*
X118229094Y-130213226D01*
X118024349Y-130311825D01*
X117840492Y-130445406D01*
X117683447Y-130609661D01*
X117558253Y-130799324D01*
X117468937Y-131008287D01*
X117418369Y-131229845D01*
X117408172Y-131456869D01*
X117438677Y-131682067D01*
X117474303Y-131791711D01*
X117508904Y-131898200D01*
X117616592Y-132098319D01*
X117616595Y-132098323D01*
X117618434Y-132101740D01*
X117632868Y-132170103D01*
X117608050Y-132235417D01*
X117551862Y-132276945D01*
X117509240Y-132284500D01*
X82895105Y-132284500D01*
X82865587Y-132280935D01*
X82865420Y-132280894D01*
X82865334Y-132280873D01*
X81488569Y-132146050D01*
X81478514Y-132144647D01*
X81439130Y-132137500D01*
X81439127Y-132137500D01*
X81407314Y-132137500D01*
X81395229Y-132136910D01*
X81379952Y-132135414D01*
X81365893Y-132134248D01*
X81365873Y-132134247D01*
X81364892Y-132134166D01*
X81364258Y-132134123D01*
X81362190Y-132134121D01*
X81362171Y-132134121D01*
X81296692Y-132134079D01*
X81296498Y-132134079D01*
X81296497Y-132134079D01*
X81296495Y-132134079D01*
X81293120Y-132134796D01*
X81267368Y-132137500D01*
X79617801Y-132137500D01*
X79615051Y-132137747D01*
X79615039Y-132137748D01*
X79448157Y-132152768D01*
X79229094Y-132213226D01*
X79024349Y-132311825D01*
X78840492Y-132445406D01*
X78683447Y-132609661D01*
X78558253Y-132799324D01*
X78468937Y-133008287D01*
X78418369Y-133229845D01*
X78408172Y-133456869D01*
X58010500Y-133456869D01*
X58010500Y-131456869D01*
X63408172Y-131456869D01*
X63438677Y-131682067D01*
X63474303Y-131791711D01*
X63508904Y-131898200D01*
X63616592Y-132098319D01*
X63707259Y-132212011D01*
X63758283Y-132275993D01*
X63929418Y-132425509D01*
X63929419Y-132425510D01*
X63929422Y-132425512D01*
X64124508Y-132542071D01*
X64124509Y-132542071D01*
X64124512Y-132542073D01*
X64337270Y-132621922D01*
X64560872Y-132662500D01*
X64560873Y-132662500D01*
X66379422Y-132662500D01*
X66382199Y-132662500D01*
X66551839Y-132647232D01*
X66770904Y-132586774D01*
X66901243Y-132524006D01*
X66975650Y-132488174D01*
X67034515Y-132445406D01*
X67159505Y-132354596D01*
X67316552Y-132190338D01*
X67441746Y-132000677D01*
X67531062Y-131791711D01*
X67581631Y-131570154D01*
X67586822Y-131454578D01*
X88499500Y-131454578D01*
X88499501Y-131457872D01*
X88505909Y-131517483D01*
X88556204Y-131652331D01*
X88642454Y-131767546D01*
X88757669Y-131853796D01*
X88892517Y-131904091D01*
X88952127Y-131910500D01*
X90647872Y-131910499D01*
X90707483Y-131904091D01*
X90842331Y-131853796D01*
X90957546Y-131767546D01*
X91043796Y-131652331D01*
X91094091Y-131517483D01*
X91100500Y-131457873D01*
X91100499Y-129762128D01*
X91094091Y-129702517D01*
X91043796Y-129567669D01*
X90957546Y-129452454D01*
X90842331Y-129366204D01*
X90707483Y-129315909D01*
X90647873Y-129309500D01*
X90644550Y-129309500D01*
X88955439Y-129309500D01*
X88955420Y-129309500D01*
X88952128Y-129309501D01*
X88948848Y-129309853D01*
X88948840Y-129309854D01*
X88892515Y-129315909D01*
X88757669Y-129366204D01*
X88642454Y-129452454D01*
X88556204Y-129567668D01*
X88505910Y-129702515D01*
X88505909Y-129702517D01*
X88499500Y-129762127D01*
X88499500Y-129765448D01*
X88499500Y-129765449D01*
X88499500Y-131454560D01*
X88499500Y-131454578D01*
X67586822Y-131454578D01*
X67591827Y-131343129D01*
X67561322Y-131117932D01*
X67491096Y-130901800D01*
X67383408Y-130701681D01*
X67241717Y-130524007D01*
X67151751Y-130445406D01*
X67070581Y-130374490D01*
X66875487Y-130257926D01*
X66662729Y-130178077D01*
X66439128Y-130137500D01*
X66439127Y-130137500D01*
X64617801Y-130137500D01*
X64615051Y-130137747D01*
X64615039Y-130137748D01*
X64448157Y-130152768D01*
X64229094Y-130213226D01*
X64024349Y-130311825D01*
X63840492Y-130445406D01*
X63683447Y-130609661D01*
X63558253Y-130799324D01*
X63468937Y-131008287D01*
X63418369Y-131229845D01*
X63408172Y-131456869D01*
X58010500Y-131456869D01*
X58010500Y-125956869D01*
X63408172Y-125956869D01*
X63438677Y-126182067D01*
X63457491Y-126239968D01*
X63508904Y-126398200D01*
X63616592Y-126598319D01*
X63693516Y-126694778D01*
X63758283Y-126775993D01*
X63929418Y-126925509D01*
X63929419Y-126925510D01*
X63929422Y-126925512D01*
X64124508Y-127042071D01*
X64124509Y-127042071D01*
X64124512Y-127042073D01*
X64337270Y-127121922D01*
X64560872Y-127162500D01*
X64560873Y-127162500D01*
X66379422Y-127162500D01*
X66382199Y-127162500D01*
X66551839Y-127147232D01*
X66678827Y-127112185D01*
X66689860Y-127109676D01*
X67705809Y-126927011D01*
X67909116Y-126890457D01*
X67931059Y-126888500D01*
X70840788Y-126888500D01*
X70907827Y-126908185D01*
X70953582Y-126960989D01*
X70963526Y-127030147D01*
X70961679Y-127040092D01*
X70918369Y-127229845D01*
X70908172Y-127456869D01*
X70938677Y-127682067D01*
X70974303Y-127791711D01*
X71008904Y-127898200D01*
X71116592Y-128098319D01*
X71258282Y-128275993D01*
X71258283Y-128275993D01*
X71429418Y-128425509D01*
X71429419Y-128425510D01*
X71429422Y-128425512D01*
X71624508Y-128542071D01*
X71624509Y-128542071D01*
X71624512Y-128542073D01*
X71837270Y-128621922D01*
X72060872Y-128662500D01*
X72060873Y-128662500D01*
X72796145Y-128662500D01*
X72863184Y-128682185D01*
X72886019Y-128701068D01*
X72944941Y-128763054D01*
X72993362Y-128796755D01*
X73000871Y-128802416D01*
X73046593Y-128839698D01*
X73073562Y-128853785D01*
X73086982Y-128861916D01*
X73111949Y-128879294D01*
X73111950Y-128879294D01*
X73111951Y-128879295D01*
X73140105Y-128891377D01*
X73166163Y-128902559D01*
X73174673Y-128906601D01*
X73226951Y-128933909D01*
X73256200Y-128942277D01*
X73270970Y-128947535D01*
X73298942Y-128959540D01*
X73298945Y-128959540D01*
X73298946Y-128959541D01*
X73356726Y-128971414D01*
X73365869Y-128973657D01*
X73422582Y-128989886D01*
X73452920Y-128992196D01*
X73468448Y-128994373D01*
X73498259Y-129000500D01*
X73557244Y-129000500D01*
X73566659Y-129000858D01*
X73570806Y-129001173D01*
X73625476Y-129005337D01*
X73652278Y-129001923D01*
X73655652Y-129001494D01*
X73671317Y-129000500D01*
X96785721Y-129000500D01*
X96788862Y-129000539D01*
X96876363Y-129002757D01*
X96934432Y-128992348D01*
X96943736Y-128991043D01*
X97002438Y-128985074D01*
X97031467Y-128975965D01*
X97046700Y-128972226D01*
X97076653Y-128966858D01*
X97131426Y-128944978D01*
X97140301Y-128941819D01*
X97157675Y-128936367D01*
X97196588Y-128924159D01*
X97223194Y-128909390D01*
X97237362Y-128902662D01*
X97265617Y-128891377D01*
X97314879Y-128858909D01*
X97322910Y-128854043D01*
X97374502Y-128825409D01*
X97397587Y-128805589D01*
X97410114Y-128796144D01*
X97435519Y-128779402D01*
X97477251Y-128737668D01*
X97484123Y-128731300D01*
X97528895Y-128692866D01*
X97547519Y-128668803D01*
X97557880Y-128657039D01*
X98935889Y-127279030D01*
X98970317Y-127254730D01*
X99022648Y-127229846D01*
X100126776Y-126704811D01*
X100171179Y-126693111D01*
X100271160Y-126685961D01*
X100536801Y-126628175D01*
X100791513Y-126533172D01*
X101030113Y-126402887D01*
X101247742Y-126239971D01*
X101439971Y-126047742D01*
X101602887Y-125830113D01*
X101733172Y-125591513D01*
X101828175Y-125336801D01*
X101885961Y-125071160D01*
X101905355Y-124800000D01*
X101885961Y-124528840D01*
X101828175Y-124263199D01*
X101733172Y-124008487D01*
X101709864Y-123965802D01*
X101602890Y-123769891D01*
X101601685Y-123768281D01*
X101439971Y-123552258D01*
X101247742Y-123360029D01*
X101103726Y-123252219D01*
X101030108Y-123197109D01*
X100791519Y-123066831D01*
X100791517Y-123066830D01*
X100791513Y-123066828D01*
X100655721Y-123016180D01*
X100599791Y-122974310D01*
X100575374Y-122908846D01*
X100590226Y-122840573D01*
X100639631Y-122791168D01*
X100655713Y-122783822D01*
X100791513Y-122733172D01*
X101030113Y-122602887D01*
X101247742Y-122439971D01*
X101439971Y-122247742D01*
X101602887Y-122030113D01*
X101733172Y-121791513D01*
X101828175Y-121536801D01*
X101885961Y-121271160D01*
X101905355Y-121000000D01*
X101885961Y-120728840D01*
X101828175Y-120463199D01*
X101733172Y-120208487D01*
X101709864Y-120165802D01*
X101602890Y-119969891D01*
X101601685Y-119968281D01*
X101439971Y-119752258D01*
X101247742Y-119560029D01*
X101042340Y-119406266D01*
X101000470Y-119350333D01*
X100995486Y-119280641D01*
X101028971Y-119219318D01*
X101090294Y-119185834D01*
X101116652Y-119183000D01*
X103583348Y-119183000D01*
X103650387Y-119202685D01*
X103696142Y-119255489D01*
X103706086Y-119324647D01*
X103677061Y-119388203D01*
X103657659Y-119406267D01*
X103452255Y-119560031D01*
X103260031Y-119752255D01*
X103097109Y-119969891D01*
X102966831Y-120208480D01*
X102871823Y-120463203D01*
X102814039Y-120728838D01*
X102794644Y-120999999D01*
X102814039Y-121271161D01*
X102871823Y-121536796D01*
X102871825Y-121536801D01*
X102966828Y-121791513D01*
X102966830Y-121791517D01*
X102966831Y-121791519D01*
X103097109Y-122030108D01*
X103097113Y-122030113D01*
X103260029Y-122247742D01*
X103452258Y-122439971D01*
X103590561Y-122543504D01*
X103669891Y-122602890D01*
X103865802Y-122709864D01*
X103908487Y-122733172D01*
X104044276Y-122783818D01*
X104100208Y-122825690D01*
X104124625Y-122891154D01*
X104109773Y-122959427D01*
X104060367Y-123008832D01*
X104044280Y-123016179D01*
X103908487Y-123066828D01*
X103908484Y-123066829D01*
X103908480Y-123066831D01*
X103669891Y-123197109D01*
X103452255Y-123360031D01*
X103260031Y-123552255D01*
X103097109Y-123769891D01*
X102966831Y-124008480D01*
X102871823Y-124263203D01*
X102814039Y-124528838D01*
X102794644Y-124800000D01*
X102814039Y-125071161D01*
X102871823Y-125336796D01*
X102878197Y-125353885D01*
X102966828Y-125591513D01*
X102966830Y-125591517D01*
X102966831Y-125591519D01*
X103097109Y-125830108D01*
X103097113Y-125830113D01*
X103260029Y-126047742D01*
X103452258Y-126239971D01*
X103631951Y-126374488D01*
X103669891Y-126402890D01*
X103848973Y-126500675D01*
X103908487Y-126533172D01*
X104163199Y-126628175D01*
X104163202Y-126628175D01*
X104163203Y-126628176D01*
X104212852Y-126638976D01*
X104428840Y-126685961D01*
X104700000Y-126705355D01*
X104971160Y-126685961D01*
X105236801Y-126628175D01*
X105491513Y-126533172D01*
X105730113Y-126402887D01*
X105947742Y-126239971D01*
X106139971Y-126047742D01*
X106302887Y-125830113D01*
X106433172Y-125591513D01*
X106528175Y-125336801D01*
X106585961Y-125071160D01*
X106605355Y-124800000D01*
X106585961Y-124528840D01*
X106528175Y-124263199D01*
X106433172Y-124008487D01*
X106409864Y-123965802D01*
X106302890Y-123769891D01*
X106301685Y-123768281D01*
X106139971Y-123552258D01*
X105947742Y-123360029D01*
X105803726Y-123252219D01*
X105730108Y-123197109D01*
X105491519Y-123066831D01*
X105491517Y-123066830D01*
X105491513Y-123066828D01*
X105355721Y-123016180D01*
X105299791Y-122974310D01*
X105275374Y-122908846D01*
X105290226Y-122840573D01*
X105339631Y-122791168D01*
X105355713Y-122783822D01*
X105491513Y-122733172D01*
X105730113Y-122602887D01*
X105947742Y-122439971D01*
X106139971Y-122247742D01*
X106302887Y-122030113D01*
X106433172Y-121791513D01*
X106528175Y-121536801D01*
X106585961Y-121271160D01*
X106605355Y-121000000D01*
X106585961Y-120728840D01*
X106528175Y-120463199D01*
X106433172Y-120208487D01*
X106409864Y-120165802D01*
X106302890Y-119969891D01*
X106301685Y-119968281D01*
X106139971Y-119752258D01*
X105947742Y-119560029D01*
X105742340Y-119406266D01*
X105700470Y-119350333D01*
X105695486Y-119280641D01*
X105728971Y-119219318D01*
X105790294Y-119185834D01*
X105816652Y-119183000D01*
X111316717Y-119183000D01*
X111383756Y-119202685D01*
X111404398Y-119219319D01*
X117380455Y-125195375D01*
X117410250Y-125243365D01*
X117470990Y-125423143D01*
X117473800Y-125492957D01*
X117469565Y-125505539D01*
X117418369Y-125729845D01*
X117408172Y-125956869D01*
X117438677Y-126182067D01*
X117457491Y-126239968D01*
X117508904Y-126398200D01*
X117616592Y-126598319D01*
X117693516Y-126694778D01*
X117758283Y-126775993D01*
X117929418Y-126925509D01*
X117929419Y-126925510D01*
X117929422Y-126925512D01*
X118124508Y-127042071D01*
X118124509Y-127042071D01*
X118124512Y-127042073D01*
X118337270Y-127121922D01*
X118560872Y-127162500D01*
X118560873Y-127162500D01*
X120379422Y-127162500D01*
X120382199Y-127162500D01*
X120551839Y-127147232D01*
X120770904Y-127086774D01*
X120933880Y-127008289D01*
X120975650Y-126988174D01*
X121013067Y-126960989D01*
X121159505Y-126854596D01*
X121316552Y-126690338D01*
X121441746Y-126500677D01*
X121531062Y-126291711D01*
X121581631Y-126070154D01*
X121591827Y-125843129D01*
X121561322Y-125617932D01*
X121491096Y-125401800D01*
X121383408Y-125201681D01*
X121241717Y-125024007D01*
X121151751Y-124945406D01*
X121070581Y-124874490D01*
X120875487Y-124757926D01*
X120662729Y-124678077D01*
X120439128Y-124637500D01*
X120439127Y-124637500D01*
X120022670Y-124637500D01*
X119955631Y-124617815D01*
X119951112Y-124614769D01*
X118864221Y-123846765D01*
X118848098Y-123833177D01*
X112500067Y-117485147D01*
X112497912Y-117482938D01*
X112437559Y-117419447D01*
X112389140Y-117385746D01*
X112381618Y-117380075D01*
X112335905Y-117342800D01*
X112308940Y-117328715D01*
X112295519Y-117320584D01*
X112270549Y-117303205D01*
X112270548Y-117303204D01*
X112270546Y-117303203D01*
X112216345Y-117279943D01*
X112207836Y-117275902D01*
X112155553Y-117248592D01*
X112149626Y-117246896D01*
X112126298Y-117240221D01*
X112111520Y-117234959D01*
X112083558Y-117222960D01*
X112025772Y-117211083D01*
X112016628Y-117208838D01*
X111959921Y-117192613D01*
X111929575Y-117190302D01*
X111914034Y-117188122D01*
X111884242Y-117182000D01*
X111884241Y-117182000D01*
X111825258Y-117182000D01*
X111815844Y-117181642D01*
X111806698Y-117180945D01*
X111757024Y-117177163D01*
X111757023Y-117177163D01*
X111757022Y-117177163D01*
X111726849Y-117181006D01*
X111711183Y-117182000D01*
X91636934Y-117182000D01*
X91569895Y-117162315D01*
X91524140Y-117109511D01*
X91514196Y-117040353D01*
X91543221Y-116976797D01*
X91545681Y-116974042D01*
X91653164Y-116857285D01*
X91789173Y-116649107D01*
X91889063Y-116421381D01*
X91950108Y-116180321D01*
X91970643Y-115932500D01*
X91950108Y-115684679D01*
X91889063Y-115443619D01*
X91789173Y-115215893D01*
X91653164Y-115007715D01*
X91484744Y-114824762D01*
X91375345Y-114739613D01*
X91288514Y-114672029D01*
X91288510Y-114672026D01*
X91288509Y-114672026D01*
X91069810Y-114553672D01*
X91069806Y-114553670D01*
X91069805Y-114553670D01*
X90834615Y-114472929D01*
X90589335Y-114432000D01*
X90340665Y-114432000D01*
X90095384Y-114472929D01*
X89860194Y-114553670D01*
X89641485Y-114672029D01*
X89445259Y-114824759D01*
X89445256Y-114824761D01*
X89445256Y-114824762D01*
X89276836Y-115007715D01*
X89255958Y-115039671D01*
X89140825Y-115215895D01*
X89088676Y-115334785D01*
X89040937Y-115443619D01*
X89003164Y-115592780D01*
X88979891Y-115684683D01*
X88959356Y-115932500D01*
X88979891Y-116180316D01*
X88979891Y-116180319D01*
X88979892Y-116180321D01*
X89040937Y-116421381D01*
X89054157Y-116451519D01*
X89140825Y-116649104D01*
X89140827Y-116649107D01*
X89276836Y-116857285D01*
X89384296Y-116974018D01*
X89415218Y-117036672D01*
X89407358Y-117106098D01*
X89363211Y-117160253D01*
X89296793Y-117181944D01*
X89293066Y-117182000D01*
X88874814Y-117182000D01*
X88807775Y-117162315D01*
X88774562Y-117130976D01*
X88758937Y-117109511D01*
X88376811Y-116584556D01*
X88279971Y-116451519D01*
X88276414Y-116446364D01*
X88153162Y-116257712D01*
X88085897Y-116184642D01*
X88079792Y-116177483D01*
X88064827Y-116158522D01*
X88064819Y-116158513D01*
X88064469Y-116158070D01*
X88063289Y-116156689D01*
X88062811Y-116156224D01*
X88062923Y-116156224D01*
X88063289Y-116156689D01*
X88063659Y-116157102D01*
X88062923Y-116156224D01*
X88062811Y-116156224D01*
X88035946Y-116130103D01*
X88031178Y-116125203D01*
X87984744Y-116074762D01*
X87898853Y-116007910D01*
X87788514Y-115922029D01*
X87788510Y-115922026D01*
X87788509Y-115922026D01*
X87569810Y-115803672D01*
X87569806Y-115803670D01*
X87569805Y-115803670D01*
X87334615Y-115722929D01*
X87089335Y-115682000D01*
X86840665Y-115682000D01*
X86595384Y-115722929D01*
X86360194Y-115803670D01*
X86141485Y-115922029D01*
X85945259Y-116074759D01*
X85945256Y-116074761D01*
X85945256Y-116074762D01*
X85776836Y-116257715D01*
X85731499Y-116327107D01*
X85640825Y-116465895D01*
X85582002Y-116600000D01*
X85540937Y-116693619D01*
X85499491Y-116857285D01*
X85479891Y-116934683D01*
X85459356Y-117182500D01*
X85479891Y-117430316D01*
X85479891Y-117430319D01*
X85479892Y-117430321D01*
X85540937Y-117671381D01*
X85553710Y-117700500D01*
X85640825Y-117899104D01*
X85640827Y-117899107D01*
X85776836Y-118107285D01*
X85945256Y-118290238D01*
X85945259Y-118290240D01*
X86141485Y-118442970D01*
X86141487Y-118442971D01*
X86141491Y-118442974D01*
X86360190Y-118561328D01*
X86428861Y-118584902D01*
X86439979Y-118589332D01*
X86452827Y-118595186D01*
X86490731Y-118606279D01*
X86496093Y-118607983D01*
X86595386Y-118642071D01*
X86619895Y-118646160D01*
X86629103Y-118647697D01*
X86643526Y-118650998D01*
X87143335Y-118797279D01*
X87196184Y-118828605D01*
X87247449Y-118879870D01*
X87249642Y-118882119D01*
X87309941Y-118945553D01*
X87358358Y-118979252D01*
X87365865Y-118984913D01*
X87411593Y-119022198D01*
X87438556Y-119036282D01*
X87451980Y-119044415D01*
X87476951Y-119061795D01*
X87531163Y-119085059D01*
X87539663Y-119089095D01*
X87591951Y-119116409D01*
X87621196Y-119124777D01*
X87635986Y-119130043D01*
X87643464Y-119133252D01*
X87663942Y-119142040D01*
X87721737Y-119153916D01*
X87730854Y-119156154D01*
X87787582Y-119172387D01*
X87817916Y-119174696D01*
X87833453Y-119176874D01*
X87863259Y-119183000D01*
X87922243Y-119183000D01*
X87931657Y-119183358D01*
X87990477Y-119187837D01*
X88020652Y-119183993D01*
X88036318Y-119183000D01*
X94183348Y-119183000D01*
X94250387Y-119202685D01*
X94296142Y-119255489D01*
X94306086Y-119324647D01*
X94277061Y-119388203D01*
X94257659Y-119406267D01*
X94052255Y-119560031D01*
X93860031Y-119752255D01*
X93697109Y-119969891D01*
X93566831Y-120208480D01*
X93471823Y-120463203D01*
X93414039Y-120728838D01*
X93394644Y-121000000D01*
X93414039Y-121271161D01*
X93471823Y-121536796D01*
X93471825Y-121536801D01*
X93566828Y-121791513D01*
X93566830Y-121791517D01*
X93566831Y-121791519D01*
X93697109Y-122030108D01*
X93697113Y-122030113D01*
X93860029Y-122247742D01*
X94052258Y-122439971D01*
X94190561Y-122543504D01*
X94269891Y-122602890D01*
X94465802Y-122709864D01*
X94508487Y-122733172D01*
X94644276Y-122783818D01*
X94700208Y-122825690D01*
X94724625Y-122891154D01*
X94709773Y-122959427D01*
X94660367Y-123008832D01*
X94644280Y-123016179D01*
X94508487Y-123066828D01*
X94508484Y-123066829D01*
X94508480Y-123066831D01*
X94269891Y-123197109D01*
X94052255Y-123360031D01*
X93860031Y-123552255D01*
X93697109Y-123769891D01*
X93566831Y-124008480D01*
X93471823Y-124263203D01*
X93414039Y-124528838D01*
X93394644Y-124800000D01*
X93414039Y-125071161D01*
X93471823Y-125336796D01*
X93478197Y-125353885D01*
X93566828Y-125591513D01*
X93566830Y-125591517D01*
X93566831Y-125591519D01*
X93697109Y-125830108D01*
X93697113Y-125830113D01*
X93860029Y-126047742D01*
X94052258Y-126239971D01*
X94231951Y-126374488D01*
X94269891Y-126402890D01*
X94448973Y-126500675D01*
X94508487Y-126533172D01*
X94763199Y-126628175D01*
X94763202Y-126628175D01*
X94763203Y-126628176D01*
X94812852Y-126638976D01*
X95028840Y-126685961D01*
X95279110Y-126703860D01*
X95299999Y-126705355D01*
X95299999Y-126705354D01*
X95300000Y-126705355D01*
X95571160Y-126685961D01*
X95836801Y-126628175D01*
X96091513Y-126533172D01*
X96330113Y-126402887D01*
X96547742Y-126239971D01*
X96739971Y-126047742D01*
X96902887Y-125830113D01*
X97033172Y-125591513D01*
X97128175Y-125336801D01*
X97185961Y-125071160D01*
X97205355Y-124800000D01*
X97185961Y-124528840D01*
X97128175Y-124263199D01*
X97033172Y-124008487D01*
X97009864Y-123965802D01*
X96902890Y-123769891D01*
X96901685Y-123768281D01*
X96739971Y-123552258D01*
X96547742Y-123360029D01*
X96403726Y-123252219D01*
X96330108Y-123197109D01*
X96091519Y-123066831D01*
X96091517Y-123066830D01*
X96091513Y-123066828D01*
X95955721Y-123016180D01*
X95899791Y-122974310D01*
X95875374Y-122908846D01*
X95890226Y-122840573D01*
X95939631Y-122791168D01*
X95955713Y-122783822D01*
X96091513Y-122733172D01*
X96330113Y-122602887D01*
X96547742Y-122439971D01*
X96739971Y-122247742D01*
X96902887Y-122030113D01*
X97033172Y-121791513D01*
X97128175Y-121536801D01*
X97185961Y-121271160D01*
X97205355Y-121000000D01*
X97185961Y-120728840D01*
X97128175Y-120463199D01*
X97033172Y-120208487D01*
X97009864Y-120165802D01*
X96902890Y-119969891D01*
X96901685Y-119968281D01*
X96739971Y-119752258D01*
X96547742Y-119560029D01*
X96342340Y-119406266D01*
X96300470Y-119350333D01*
X96295486Y-119280641D01*
X96328971Y-119219318D01*
X96390294Y-119185834D01*
X96416652Y-119183000D01*
X98883348Y-119183000D01*
X98950387Y-119202685D01*
X98996142Y-119255489D01*
X99006086Y-119324647D01*
X98977061Y-119388203D01*
X98957659Y-119406267D01*
X98752255Y-119560031D01*
X98560031Y-119752255D01*
X98397109Y-119969891D01*
X98266831Y-120208480D01*
X98171823Y-120463203D01*
X98114039Y-120728838D01*
X98094644Y-121000000D01*
X98114039Y-121271161D01*
X98171823Y-121536796D01*
X98171825Y-121536801D01*
X98266828Y-121791513D01*
X98266830Y-121791517D01*
X98266831Y-121791519D01*
X98397109Y-122030108D01*
X98397113Y-122030113D01*
X98560029Y-122247742D01*
X98752258Y-122439971D01*
X98890561Y-122543504D01*
X98969891Y-122602890D01*
X99165802Y-122709864D01*
X99208487Y-122733172D01*
X99344276Y-122783818D01*
X99400208Y-122825690D01*
X99424625Y-122891154D01*
X99409773Y-122959427D01*
X99360367Y-123008832D01*
X99344280Y-123016179D01*
X99208487Y-123066828D01*
X99208484Y-123066829D01*
X99208480Y-123066831D01*
X98969891Y-123197109D01*
X98752255Y-123360031D01*
X98560031Y-123552255D01*
X98397109Y-123769891D01*
X98266831Y-124008480D01*
X98171823Y-124263203D01*
X98114039Y-124528838D01*
X98106887Y-124628815D01*
X98095187Y-124673216D01*
X97545267Y-125829683D01*
X97520964Y-125864114D01*
X96421899Y-126963181D01*
X96360576Y-126996666D01*
X96334218Y-126999500D01*
X82311075Y-126999500D01*
X82244036Y-126979815D01*
X82198281Y-126927011D01*
X82188337Y-126857853D01*
X82217362Y-126794297D01*
X82221432Y-126789824D01*
X82316552Y-126690338D01*
X82441746Y-126500677D01*
X82531062Y-126291711D01*
X82581631Y-126070154D01*
X82591827Y-125843129D01*
X82561322Y-125617932D01*
X82491096Y-125401800D01*
X82383408Y-125201681D01*
X82241717Y-125024007D01*
X82151751Y-124945406D01*
X82070581Y-124874490D01*
X81875487Y-124757926D01*
X81662729Y-124678077D01*
X81439128Y-124637500D01*
X81439127Y-124637500D01*
X79743246Y-124637500D01*
X79738439Y-124637074D01*
X79718495Y-124637475D01*
X79716009Y-124637500D01*
X79617801Y-124637500D01*
X79615043Y-124637748D01*
X79615025Y-124637749D01*
X79593597Y-124639677D01*
X79586695Y-124640057D01*
X79580159Y-124640887D01*
X79448160Y-124652768D01*
X79363716Y-124676073D01*
X79350833Y-124678900D01*
X78091191Y-124885859D01*
X78071087Y-124887500D01*
X67928912Y-124887500D01*
X67908808Y-124885859D01*
X66689231Y-124685482D01*
X66665775Y-124679220D01*
X66662731Y-124678078D01*
X66439128Y-124637500D01*
X66439127Y-124637500D01*
X66401627Y-124637500D01*
X66385297Y-124636420D01*
X66382939Y-124636106D01*
X66382925Y-124636105D01*
X66382269Y-124636018D01*
X66380853Y-124635874D01*
X66378277Y-124635828D01*
X66378262Y-124635828D01*
X66377234Y-124635810D01*
X66380375Y-124635810D01*
X66380853Y-124635874D01*
X66381248Y-124635905D01*
X66380375Y-124635810D01*
X66377234Y-124635810D01*
X66296193Y-124634391D01*
X66294281Y-124634798D01*
X66268537Y-124637500D01*
X64617801Y-124637500D01*
X64615051Y-124637747D01*
X64615039Y-124637748D01*
X64448157Y-124652768D01*
X64229094Y-124713226D01*
X64024349Y-124811825D01*
X63840492Y-124945406D01*
X63683447Y-125109661D01*
X63558253Y-125299324D01*
X63468937Y-125508287D01*
X63418369Y-125729845D01*
X63408172Y-125956869D01*
X58010500Y-125956869D01*
X58010500Y-122990000D01*
X88494531Y-122990000D01*
X88514364Y-123216689D01*
X88573261Y-123436497D01*
X88669432Y-123642735D01*
X88799953Y-123829140D01*
X88960859Y-123990046D01*
X89147264Y-124120567D01*
X89147265Y-124120567D01*
X89147266Y-124120568D01*
X89353504Y-124216739D01*
X89573308Y-124275635D01*
X89800000Y-124295468D01*
X90026692Y-124275635D01*
X90246496Y-124216739D01*
X90452734Y-124120568D01*
X90639139Y-123990047D01*
X90800047Y-123829139D01*
X90930568Y-123642734D01*
X91026739Y-123436496D01*
X91085635Y-123216692D01*
X91105468Y-122990000D01*
X91085635Y-122763308D01*
X91026739Y-122543504D01*
X90930568Y-122337266D01*
X90867884Y-122247742D01*
X90800046Y-122150859D01*
X90639140Y-121989953D01*
X90452735Y-121859432D01*
X90246497Y-121763261D01*
X90026689Y-121704364D01*
X89800000Y-121684531D01*
X89573310Y-121704364D01*
X89353502Y-121763261D01*
X89147264Y-121859432D01*
X88960859Y-121989953D01*
X88799953Y-122150859D01*
X88669432Y-122337264D01*
X88573261Y-122543502D01*
X88514364Y-122763310D01*
X88494531Y-122990000D01*
X58010500Y-122990000D01*
X58010500Y-115233437D01*
X79960630Y-115233437D01*
X79991443Y-115434571D01*
X80062113Y-115625386D01*
X80169745Y-115798068D01*
X80169748Y-115798071D01*
X80309941Y-115945553D01*
X80476951Y-116061795D01*
X80663942Y-116142040D01*
X80863259Y-116183000D01*
X80863261Y-116183000D01*
X83512600Y-116183000D01*
X83515742Y-116183000D01*
X83667438Y-116167574D01*
X83861588Y-116106659D01*
X84039502Y-116007909D01*
X84193895Y-115875366D01*
X84318448Y-115714458D01*
X84408060Y-115531771D01*
X84459063Y-115334785D01*
X84469369Y-115131564D01*
X84455291Y-115039671D01*
X84438556Y-114930428D01*
X84367886Y-114739613D01*
X84260254Y-114566931D01*
X84218679Y-114523195D01*
X84120059Y-114419447D01*
X83953049Y-114303205D01*
X83766058Y-114222960D01*
X83569169Y-114182499D01*
X91959356Y-114182499D01*
X91979891Y-114430316D01*
X91979891Y-114430319D01*
X91979892Y-114430321D01*
X92040937Y-114671381D01*
X92085960Y-114774023D01*
X92140825Y-114899104D01*
X92140827Y-114899107D01*
X92276836Y-115107285D01*
X92445256Y-115290238D01*
X92445259Y-115290240D01*
X92641485Y-115442970D01*
X92641487Y-115442971D01*
X92641491Y-115442974D01*
X92860190Y-115561328D01*
X93095386Y-115642071D01*
X93340665Y-115683000D01*
X93589335Y-115683000D01*
X93834614Y-115642071D01*
X93961678Y-115598449D01*
X93978930Y-115594554D01*
X93985697Y-115592780D01*
X93985700Y-115592780D01*
X95533763Y-115187050D01*
X95565200Y-115183000D01*
X113466717Y-115183000D01*
X113533756Y-115202685D01*
X113554398Y-115219319D01*
X124995159Y-126660080D01*
X125028644Y-126721403D01*
X125029700Y-126726838D01*
X125040556Y-126790254D01*
X125032465Y-126859654D01*
X125032356Y-126859911D01*
X124968937Y-127008289D01*
X124918369Y-127229845D01*
X124908172Y-127456869D01*
X124938677Y-127682067D01*
X124974303Y-127791711D01*
X125008904Y-127898200D01*
X125116592Y-128098319D01*
X125258282Y-128275993D01*
X125258283Y-128275993D01*
X125429418Y-128425509D01*
X125429419Y-128425510D01*
X125429422Y-128425512D01*
X125624508Y-128542071D01*
X125624509Y-128542071D01*
X125624512Y-128542073D01*
X125837270Y-128621922D01*
X126060872Y-128662500D01*
X126060873Y-128662500D01*
X127879422Y-128662500D01*
X127882199Y-128662500D01*
X128051839Y-128647232D01*
X128270904Y-128586774D01*
X128369764Y-128539165D01*
X128475650Y-128488174D01*
X128475653Y-128488172D01*
X128659505Y-128354596D01*
X128816552Y-128190338D01*
X128941746Y-128000677D01*
X129031062Y-127791711D01*
X129081631Y-127570154D01*
X129091827Y-127343129D01*
X129061322Y-127117932D01*
X128991096Y-126901800D01*
X128883408Y-126701681D01*
X128741717Y-126524007D01*
X128603087Y-126402890D01*
X128570581Y-126374490D01*
X128375487Y-126257926D01*
X128162729Y-126178077D01*
X127939128Y-126137500D01*
X127939127Y-126137500D01*
X127566713Y-126137500D01*
X127499674Y-126117815D01*
X127490305Y-126111162D01*
X127293093Y-125956869D01*
X132408172Y-125956869D01*
X132438677Y-126182067D01*
X132457491Y-126239968D01*
X132508904Y-126398200D01*
X132616592Y-126598319D01*
X132693516Y-126694778D01*
X132758283Y-126775993D01*
X132929418Y-126925509D01*
X132929419Y-126925510D01*
X132929422Y-126925512D01*
X133124508Y-127042071D01*
X133124509Y-127042071D01*
X133124512Y-127042073D01*
X133337270Y-127121922D01*
X133560872Y-127162500D01*
X133560873Y-127162500D01*
X135379422Y-127162500D01*
X135382199Y-127162500D01*
X135551839Y-127147232D01*
X135770904Y-127086774D01*
X135933880Y-127008289D01*
X135975650Y-126988174D01*
X136013067Y-126960989D01*
X136159505Y-126854596D01*
X136316552Y-126690338D01*
X136441746Y-126500677D01*
X136531062Y-126291711D01*
X136581631Y-126070154D01*
X136591827Y-125843129D01*
X136561322Y-125617932D01*
X136491096Y-125401800D01*
X136383408Y-125201681D01*
X136241717Y-125024007D01*
X136151751Y-124945406D01*
X136070581Y-124874490D01*
X135875487Y-124757926D01*
X135662729Y-124678077D01*
X135439128Y-124637500D01*
X135439127Y-124637500D01*
X133617801Y-124637500D01*
X133615051Y-124637747D01*
X133615039Y-124637748D01*
X133448157Y-124652768D01*
X133229094Y-124713226D01*
X133024349Y-124811825D01*
X132840492Y-124945406D01*
X132683447Y-125109661D01*
X132558253Y-125299324D01*
X132468937Y-125508287D01*
X132418369Y-125729845D01*
X132408172Y-125956869D01*
X127293093Y-125956869D01*
X126522381Y-125353885D01*
X126521239Y-125353023D01*
X126515519Y-125348768D01*
X126501964Y-125337044D01*
X118748601Y-117583681D01*
X118715116Y-117522358D01*
X118720100Y-117452666D01*
X118761972Y-117396733D01*
X118827436Y-117372316D01*
X118895709Y-117387168D01*
X118906133Y-117393546D01*
X119027615Y-117476371D01*
X119257180Y-117586923D01*
X119379999Y-117624808D01*
X119380000Y-117624808D01*
X119380000Y-116500000D01*
X118250403Y-116500000D01*
X118250971Y-116502491D01*
X118344057Y-116739669D01*
X118473444Y-116963775D01*
X118489917Y-117031676D01*
X118467064Y-117097702D01*
X118412143Y-117140893D01*
X118342589Y-117147534D01*
X118280487Y-117115518D01*
X118278376Y-117113456D01*
X117164920Y-116000000D01*
X119274823Y-116000000D01*
X119295444Y-116156631D01*
X119355901Y-116302588D01*
X119452075Y-116427925D01*
X119577412Y-116524099D01*
X119723369Y-116584556D01*
X119840677Y-116600000D01*
X119919323Y-116600000D01*
X120036631Y-116584556D01*
X120182588Y-116524099D01*
X120213995Y-116500000D01*
X120380000Y-116500000D01*
X120380000Y-117624808D01*
X120502822Y-117586922D01*
X120732379Y-117476374D01*
X120942907Y-117332839D01*
X121129682Y-117159536D01*
X121288545Y-116960328D01*
X121415942Y-116739669D01*
X121509028Y-116502491D01*
X121509597Y-116500000D01*
X120380000Y-116500000D01*
X120213995Y-116500000D01*
X120307925Y-116427925D01*
X120404099Y-116302589D01*
X120464556Y-116156631D01*
X120485177Y-116000000D01*
X133414731Y-116000000D01*
X133433777Y-116254154D01*
X133490492Y-116502637D01*
X133583608Y-116739891D01*
X133696069Y-116934679D01*
X133711041Y-116960612D01*
X133869950Y-117159877D01*
X134056783Y-117333232D01*
X134267366Y-117476805D01*
X134496996Y-117587389D01*
X134740542Y-117662513D01*
X134992565Y-117700500D01*
X135247435Y-117700500D01*
X135499458Y-117662513D01*
X135743004Y-117587389D01*
X135972634Y-117476805D01*
X136183217Y-117333232D01*
X136370050Y-117159877D01*
X136528959Y-116960612D01*
X136656393Y-116739888D01*
X136749508Y-116502637D01*
X136806222Y-116254157D01*
X136825268Y-116000000D01*
X136806222Y-115745843D01*
X136749508Y-115497363D01*
X136656393Y-115260112D01*
X136640992Y-115233437D01*
X136528961Y-115039392D01*
X136528959Y-115039388D01*
X136370050Y-114840123D01*
X136183217Y-114666768D01*
X135972634Y-114523195D01*
X135743004Y-114412611D01*
X135499458Y-114337487D01*
X135247435Y-114299500D01*
X134992565Y-114299500D01*
X134740542Y-114337487D01*
X134496996Y-114412611D01*
X134267366Y-114523195D01*
X134203220Y-114566929D01*
X134056781Y-114666769D01*
X133886505Y-114824762D01*
X133869950Y-114840123D01*
X133718356Y-115030216D01*
X133711038Y-115039392D01*
X133583608Y-115260108D01*
X133490492Y-115497362D01*
X133433777Y-115745845D01*
X133414731Y-116000000D01*
X120485177Y-116000000D01*
X120464556Y-115843369D01*
X120404099Y-115697412D01*
X120307925Y-115572075D01*
X120182588Y-115475901D01*
X120036631Y-115415444D01*
X119919323Y-115400000D01*
X119840677Y-115400000D01*
X119723369Y-115415444D01*
X119577412Y-115475901D01*
X119452075Y-115572075D01*
X119355901Y-115697411D01*
X119295444Y-115843369D01*
X119274823Y-116000000D01*
X117164920Y-116000000D01*
X116664920Y-115500000D01*
X118250403Y-115500000D01*
X119380000Y-115500000D01*
X119379999Y-115499999D01*
X119379999Y-114375191D01*
X120380000Y-114375191D01*
X120380000Y-115500000D01*
X121509597Y-115500000D01*
X121509596Y-115499999D01*
X121509028Y-115497508D01*
X121415942Y-115260330D01*
X121288545Y-115039671D01*
X121129682Y-114840463D01*
X120942907Y-114667160D01*
X120732379Y-114523625D01*
X120502823Y-114413077D01*
X120380000Y-114375191D01*
X119379999Y-114375191D01*
X119257178Y-114413077D01*
X119027616Y-114523628D01*
X118817095Y-114667158D01*
X118630317Y-114840463D01*
X118471454Y-115039671D01*
X118344057Y-115260330D01*
X118250971Y-115497508D01*
X118250403Y-115499999D01*
X118250403Y-115500000D01*
X116664920Y-115500000D01*
X114650067Y-113485147D01*
X114647912Y-113482938D01*
X114587559Y-113419447D01*
X114539140Y-113385746D01*
X114531618Y-113380075D01*
X114485905Y-113342800D01*
X114458940Y-113328715D01*
X114445519Y-113320584D01*
X114420549Y-113303205D01*
X114420548Y-113303204D01*
X114420546Y-113303203D01*
X114366345Y-113279943D01*
X114357836Y-113275902D01*
X114305553Y-113248592D01*
X114299626Y-113246896D01*
X114276298Y-113240221D01*
X114261520Y-113234959D01*
X114233558Y-113222960D01*
X114175772Y-113211083D01*
X114166628Y-113208838D01*
X114109921Y-113192613D01*
X114079575Y-113190302D01*
X114064034Y-113188122D01*
X114034242Y-113182000D01*
X114034241Y-113182000D01*
X113975258Y-113182000D01*
X113965844Y-113181642D01*
X113956698Y-113180945D01*
X113907024Y-113177163D01*
X113907023Y-113177163D01*
X113907022Y-113177163D01*
X113876849Y-113181006D01*
X113861183Y-113182000D01*
X95565201Y-113182000D01*
X95533764Y-113177949D01*
X95140053Y-113074762D01*
X93985699Y-112772219D01*
X93966815Y-112767656D01*
X93966777Y-112767653D01*
X93965973Y-112767459D01*
X93954921Y-112764230D01*
X93834615Y-112722929D01*
X93589335Y-112682000D01*
X93340665Y-112682000D01*
X93095384Y-112722929D01*
X92860194Y-112803670D01*
X92641485Y-112922029D01*
X92445259Y-113074759D01*
X92445256Y-113074761D01*
X92445256Y-113074762D01*
X92320635Y-113210137D01*
X92276837Y-113257714D01*
X92140825Y-113465895D01*
X92040938Y-113693617D01*
X91979891Y-113934683D01*
X91959356Y-114182499D01*
X83569169Y-114182499D01*
X83566741Y-114182000D01*
X80914258Y-114182000D01*
X80911147Y-114182316D01*
X80911134Y-114182317D01*
X80762559Y-114197426D01*
X80568412Y-114258341D01*
X80390500Y-114357089D01*
X80236104Y-114489635D01*
X80111551Y-114650542D01*
X80021940Y-114833227D01*
X79970937Y-115030216D01*
X79960630Y-115233437D01*
X58010500Y-115233437D01*
X58010500Y-110500000D01*
X118250403Y-110500000D01*
X118250971Y-110502491D01*
X118344057Y-110739669D01*
X118471454Y-110960328D01*
X118630317Y-111159536D01*
X118817095Y-111332841D01*
X119027615Y-111476371D01*
X119257180Y-111586923D01*
X119379999Y-111624808D01*
X119380000Y-111624808D01*
X119380000Y-110500000D01*
X118250403Y-110500000D01*
X58010500Y-110500000D01*
X58010500Y-110000000D01*
X119274823Y-110000000D01*
X119295444Y-110156631D01*
X119355901Y-110302588D01*
X119452075Y-110427925D01*
X119577412Y-110524099D01*
X119723369Y-110584556D01*
X119840677Y-110600000D01*
X119919323Y-110600000D01*
X120036631Y-110584556D01*
X120182588Y-110524099D01*
X120213995Y-110500000D01*
X120380000Y-110500000D01*
X120380000Y-111624808D01*
X120502822Y-111586922D01*
X120732379Y-111476374D01*
X120942907Y-111332839D01*
X121129682Y-111159536D01*
X121288545Y-110960328D01*
X121415942Y-110739669D01*
X121509028Y-110502491D01*
X121509597Y-110500000D01*
X120380000Y-110500000D01*
X120213995Y-110500000D01*
X120307925Y-110427925D01*
X120404099Y-110302589D01*
X120464556Y-110156631D01*
X120485177Y-110000000D01*
X120485177Y-109999999D01*
X133414731Y-109999999D01*
X133433777Y-110254154D01*
X133490492Y-110502637D01*
X133583608Y-110739891D01*
X133710877Y-110960328D01*
X133711041Y-110960612D01*
X133869950Y-111159877D01*
X134056783Y-111333232D01*
X134267366Y-111476805D01*
X134496996Y-111587389D01*
X134740542Y-111662513D01*
X134992565Y-111700500D01*
X135247435Y-111700500D01*
X135499458Y-111662513D01*
X135743004Y-111587389D01*
X135972634Y-111476805D01*
X136183217Y-111333232D01*
X136370050Y-111159877D01*
X136528959Y-110960612D01*
X136656393Y-110739888D01*
X136749508Y-110502637D01*
X136806222Y-110254157D01*
X136825268Y-110000000D01*
X136806222Y-109745843D01*
X136749508Y-109497363D01*
X136656393Y-109260112D01*
X136528959Y-109039388D01*
X136370050Y-108840123D01*
X136183217Y-108666768D01*
X135972634Y-108523195D01*
X135743004Y-108412611D01*
X135499458Y-108337487D01*
X135247435Y-108299500D01*
X134992565Y-108299500D01*
X134740542Y-108337487D01*
X134496996Y-108412611D01*
X134267366Y-108523195D01*
X134266731Y-108523628D01*
X134056781Y-108666769D01*
X133869950Y-108840123D01*
X133711038Y-109039392D01*
X133583608Y-109260108D01*
X133490492Y-109497362D01*
X133433777Y-109745845D01*
X133414731Y-109999999D01*
X120485177Y-109999999D01*
X120464556Y-109843369D01*
X120404099Y-109697412D01*
X120307925Y-109572075D01*
X120182588Y-109475901D01*
X120036631Y-109415444D01*
X119919323Y-109400000D01*
X119840677Y-109400000D01*
X119723369Y-109415444D01*
X119577412Y-109475901D01*
X119452075Y-109572075D01*
X119355901Y-109697411D01*
X119295444Y-109843369D01*
X119274823Y-110000000D01*
X58010500Y-110000000D01*
X58010500Y-109500000D01*
X118250403Y-109500000D01*
X119379999Y-109500000D01*
X119379999Y-108375191D01*
X120380000Y-108375191D01*
X120380000Y-109500000D01*
X121509597Y-109500000D01*
X121509596Y-109499999D01*
X121509028Y-109497508D01*
X121415942Y-109260330D01*
X121288545Y-109039671D01*
X121129682Y-108840463D01*
X120942907Y-108667160D01*
X120732379Y-108523625D01*
X120502823Y-108413077D01*
X120380000Y-108375191D01*
X119379999Y-108375191D01*
X119257178Y-108413077D01*
X119027616Y-108523628D01*
X118817095Y-108667158D01*
X118630317Y-108840463D01*
X118471454Y-109039671D01*
X118344057Y-109260330D01*
X118250971Y-109497508D01*
X118250403Y-109499999D01*
X118250403Y-109500000D01*
X58010500Y-109500000D01*
X58010500Y-107733437D01*
X79960630Y-107733437D01*
X79991443Y-107934571D01*
X80062113Y-108125386D01*
X80169745Y-108298068D01*
X80169748Y-108298071D01*
X80309941Y-108445553D01*
X80476951Y-108561795D01*
X80663942Y-108642040D01*
X80863259Y-108683000D01*
X80863261Y-108683000D01*
X83512600Y-108683000D01*
X83515742Y-108683000D01*
X83667438Y-108667574D01*
X83861588Y-108606659D01*
X84039502Y-108507909D01*
X84193895Y-108375366D01*
X84318448Y-108214458D01*
X84408060Y-108031771D01*
X84459063Y-107834785D01*
X84469369Y-107631564D01*
X84438556Y-107430429D01*
X84402557Y-107333229D01*
X84367886Y-107239613D01*
X84260254Y-107066931D01*
X84253803Y-107060144D01*
X84120059Y-106919447D01*
X83953049Y-106803205D01*
X83766058Y-106722960D01*
X83566741Y-106682000D01*
X80914258Y-106682000D01*
X80911147Y-106682316D01*
X80911134Y-106682317D01*
X80762559Y-106697426D01*
X80568412Y-106758341D01*
X80390500Y-106857089D01*
X80236104Y-106989635D01*
X80111551Y-107150542D01*
X80021940Y-107333227D01*
X79970937Y-107530216D01*
X79960630Y-107733437D01*
X58010500Y-107733437D01*
X58010500Y-104000000D01*
X118174731Y-104000000D01*
X118193777Y-104254154D01*
X118250492Y-104502637D01*
X118343608Y-104739891D01*
X118471038Y-104960607D01*
X118471041Y-104960612D01*
X118629950Y-105159877D01*
X118816783Y-105333232D01*
X119027366Y-105476805D01*
X119256996Y-105587389D01*
X119500542Y-105662513D01*
X119752565Y-105700500D01*
X120007435Y-105700500D01*
X120259458Y-105662513D01*
X120503004Y-105587389D01*
X120732634Y-105476805D01*
X120943217Y-105333232D01*
X121130050Y-105159877D01*
X121288959Y-104960612D01*
X121416393Y-104739888D01*
X121509508Y-104502637D01*
X121566222Y-104254157D01*
X121585268Y-104000000D01*
X133414731Y-104000000D01*
X133433777Y-104254154D01*
X133490492Y-104502637D01*
X133583608Y-104739891D01*
X133711038Y-104960607D01*
X133711041Y-104960612D01*
X133869950Y-105159877D01*
X134056783Y-105333232D01*
X134267366Y-105476805D01*
X134496996Y-105587389D01*
X134740542Y-105662513D01*
X134992565Y-105700500D01*
X135247435Y-105700500D01*
X135499458Y-105662513D01*
X135743004Y-105587389D01*
X135972634Y-105476805D01*
X136183217Y-105333232D01*
X136370050Y-105159877D01*
X136528959Y-104960612D01*
X136656393Y-104739888D01*
X136749508Y-104502637D01*
X136806222Y-104254157D01*
X136825268Y-104000000D01*
X136806222Y-103745843D01*
X136749508Y-103497363D01*
X136656393Y-103260112D01*
X136528959Y-103039388D01*
X136370050Y-102840123D01*
X136183217Y-102666768D01*
X135972634Y-102523195D01*
X135743004Y-102412611D01*
X135499458Y-102337487D01*
X135247435Y-102299500D01*
X134992565Y-102299500D01*
X134740542Y-102337487D01*
X134496996Y-102412611D01*
X134267366Y-102523195D01*
X134162074Y-102594981D01*
X134056781Y-102666769D01*
X133869950Y-102840123D01*
X133711038Y-103039392D01*
X133583608Y-103260108D01*
X133490492Y-103497362D01*
X133433777Y-103745845D01*
X133414731Y-104000000D01*
X121585268Y-104000000D01*
X121566222Y-103745843D01*
X121509508Y-103497363D01*
X121416393Y-103260112D01*
X121288959Y-103039388D01*
X121130050Y-102840123D01*
X120943217Y-102666768D01*
X120732634Y-102523195D01*
X120503004Y-102412611D01*
X120259458Y-102337487D01*
X120007435Y-102299500D01*
X119752565Y-102299500D01*
X119500542Y-102337487D01*
X119256996Y-102412611D01*
X119027366Y-102523195D01*
X118922074Y-102594981D01*
X118816781Y-102666769D01*
X118629950Y-102840123D01*
X118471038Y-103039392D01*
X118343608Y-103260108D01*
X118250492Y-103497362D01*
X118193777Y-103745845D01*
X118174731Y-104000000D01*
X58010500Y-104000000D01*
X58010500Y-97432499D01*
X99709356Y-97432499D01*
X99729891Y-97680316D01*
X99729891Y-97680319D01*
X99729892Y-97680321D01*
X99790937Y-97921381D01*
X99825422Y-97999999D01*
X99890825Y-98149104D01*
X99890827Y-98149107D01*
X100026836Y-98357285D01*
X100195256Y-98540238D01*
X100195259Y-98540240D01*
X100391485Y-98692970D01*
X100391487Y-98692971D01*
X100391491Y-98692974D01*
X100610190Y-98811328D01*
X100845386Y-98892071D01*
X101090665Y-98933000D01*
X101339335Y-98933000D01*
X101584614Y-98892071D01*
X101819810Y-98811328D01*
X102038509Y-98692974D01*
X102234744Y-98540238D01*
X102403164Y-98357285D01*
X102539173Y-98149107D01*
X102639063Y-97921381D01*
X102700108Y-97680321D01*
X102720643Y-97432500D01*
X102700108Y-97184679D01*
X102673600Y-97080000D01*
X108494531Y-97080000D01*
X108514364Y-97306689D01*
X108573261Y-97526497D01*
X108669432Y-97732735D01*
X108799953Y-97919140D01*
X108960859Y-98080046D01*
X109147264Y-98210567D01*
X109147265Y-98210567D01*
X109147266Y-98210568D01*
X109353504Y-98306739D01*
X109573308Y-98365635D01*
X109724435Y-98378857D01*
X109799999Y-98385468D01*
X109799999Y-98385467D01*
X109800000Y-98385468D01*
X110026692Y-98365635D01*
X110246496Y-98306739D01*
X110452734Y-98210568D01*
X110639139Y-98080047D01*
X110719186Y-98000000D01*
X118174731Y-98000000D01*
X118193777Y-98254154D01*
X118250492Y-98502637D01*
X118343608Y-98739891D01*
X118431469Y-98892071D01*
X118471041Y-98960612D01*
X118629950Y-99159877D01*
X118816783Y-99333232D01*
X119027366Y-99476805D01*
X119256996Y-99587389D01*
X119500542Y-99662513D01*
X119752565Y-99700500D01*
X120007435Y-99700500D01*
X120259458Y-99662513D01*
X120503004Y-99587389D01*
X120732634Y-99476805D01*
X120943217Y-99333232D01*
X121130050Y-99159877D01*
X121288959Y-98960612D01*
X121416393Y-98739888D01*
X121509508Y-98502637D01*
X121566222Y-98254157D01*
X121585268Y-98000000D01*
X121566222Y-97745843D01*
X121509508Y-97497363D01*
X121416393Y-97260112D01*
X121372844Y-97184683D01*
X121288961Y-97039392D01*
X121288959Y-97039388D01*
X121130050Y-96840123D01*
X120943217Y-96666768D01*
X120732634Y-96523195D01*
X120503004Y-96412611D01*
X120259458Y-96337487D01*
X120007435Y-96299500D01*
X119752565Y-96299500D01*
X119500542Y-96337487D01*
X119256996Y-96412611D01*
X119059511Y-96507715D01*
X119027366Y-96523195D01*
X118922074Y-96594981D01*
X118816781Y-96666769D01*
X118763836Y-96715895D01*
X118629950Y-96840123D01*
X118547415Y-96943619D01*
X118471038Y-97039392D01*
X118343608Y-97260108D01*
X118250492Y-97497362D01*
X118193777Y-97745845D01*
X118174731Y-98000000D01*
X110719186Y-98000000D01*
X110800047Y-97919139D01*
X110930568Y-97732734D01*
X111026739Y-97526496D01*
X111085635Y-97306692D01*
X111105468Y-97080000D01*
X111085635Y-96853308D01*
X111026739Y-96633504D01*
X110930568Y-96427266D01*
X110858793Y-96324759D01*
X110800046Y-96240859D01*
X110639140Y-96079953D01*
X110452735Y-95949432D01*
X110246497Y-95853261D01*
X110026689Y-95794364D01*
X109799999Y-95774531D01*
X109573310Y-95794364D01*
X109353502Y-95853261D01*
X109147264Y-95949432D01*
X108960859Y-96079953D01*
X108799953Y-96240859D01*
X108669432Y-96427264D01*
X108573261Y-96633502D01*
X108514364Y-96853310D01*
X108494531Y-97080000D01*
X102673600Y-97080000D01*
X102639063Y-96943619D01*
X102539173Y-96715893D01*
X102403164Y-96507715D01*
X102234744Y-96324762D01*
X102202287Y-96299500D01*
X102038514Y-96172029D01*
X102038510Y-96172026D01*
X102038509Y-96172026D01*
X101819810Y-96053672D01*
X101819806Y-96053670D01*
X101819805Y-96053670D01*
X101584615Y-95972929D01*
X101339335Y-95932000D01*
X101090665Y-95932000D01*
X100845384Y-95972929D01*
X100610194Y-96053670D01*
X100391485Y-96172029D01*
X100195259Y-96324759D01*
X100195256Y-96324761D01*
X100195256Y-96324762D01*
X100026836Y-96507715D01*
X99981499Y-96577107D01*
X99890825Y-96715895D01*
X99830551Y-96853308D01*
X99790937Y-96943619D01*
X99756226Y-97080688D01*
X99729891Y-97184683D01*
X99709356Y-97432499D01*
X58010500Y-97432499D01*
X58010500Y-92000000D01*
X118174731Y-92000000D01*
X118193777Y-92254154D01*
X118250492Y-92502637D01*
X118343608Y-92739891D01*
X118471038Y-92960607D01*
X118471041Y-92960612D01*
X118629950Y-93159877D01*
X118816783Y-93333232D01*
X119027366Y-93476805D01*
X119256996Y-93587389D01*
X119500542Y-93662513D01*
X119752565Y-93700500D01*
X120007435Y-93700500D01*
X120259458Y-93662513D01*
X120503004Y-93587389D01*
X120732634Y-93476805D01*
X120943217Y-93333232D01*
X121130050Y-93159877D01*
X121288959Y-92960612D01*
X121416393Y-92739888D01*
X121509508Y-92502637D01*
X121566222Y-92254157D01*
X121585268Y-92000000D01*
X121566222Y-91745843D01*
X121509508Y-91497363D01*
X121416393Y-91260112D01*
X121406255Y-91242553D01*
X121288961Y-91039392D01*
X121288959Y-91039388D01*
X121130050Y-90840123D01*
X120943217Y-90666768D01*
X120732634Y-90523195D01*
X120503004Y-90412611D01*
X120259458Y-90337487D01*
X120007435Y-90299500D01*
X119752565Y-90299500D01*
X119500542Y-90337487D01*
X119256996Y-90412611D01*
X119027366Y-90523195D01*
X118970752Y-90561794D01*
X118816781Y-90666769D01*
X118629950Y-90840123D01*
X118471038Y-91039392D01*
X118343608Y-91260108D01*
X118250492Y-91497362D01*
X118193777Y-91745845D01*
X118174731Y-92000000D01*
X58010500Y-92000000D01*
X58010500Y-91123474D01*
X98138774Y-91123474D01*
X98291766Y-91242553D01*
X98510393Y-91360868D01*
X98745506Y-91441583D01*
X98990707Y-91482500D01*
X99239292Y-91482500D01*
X99389228Y-91457479D01*
X98931987Y-90665513D01*
X98931986Y-90665513D01*
X98138774Y-91123473D01*
X98138774Y-91123474D01*
X58010500Y-91123474D01*
X58010500Y-89733437D01*
X79960630Y-89733437D01*
X79991443Y-89934571D01*
X80062113Y-90125386D01*
X80169745Y-90298068D01*
X80169748Y-90298071D01*
X80309941Y-90445553D01*
X80476951Y-90561795D01*
X80663942Y-90642040D01*
X80863259Y-90683000D01*
X80863261Y-90683000D01*
X83512600Y-90683000D01*
X83515742Y-90683000D01*
X83667438Y-90667574D01*
X83861588Y-90606659D01*
X84039502Y-90507909D01*
X84193895Y-90375366D01*
X84318448Y-90214458D01*
X84408060Y-90031771D01*
X84459063Y-89834785D01*
X84469369Y-89631564D01*
X84465724Y-89607774D01*
X84438556Y-89430428D01*
X84398945Y-89323474D01*
X97038774Y-89323474D01*
X97191766Y-89442553D01*
X97410389Y-89560866D01*
X97547028Y-89607774D01*
X97604044Y-89648160D01*
X97630175Y-89712959D01*
X97630342Y-89735296D01*
X97609858Y-89982499D01*
X97630386Y-90230236D01*
X97637467Y-90258201D01*
X97990481Y-90054389D01*
X98615000Y-90054389D01*
X98655507Y-90192344D01*
X98733239Y-90313298D01*
X98841900Y-90407452D01*
X98972685Y-90467180D01*
X99079237Y-90482500D01*
X99150763Y-90482500D01*
X99257315Y-90467180D01*
X99388100Y-90407452D01*
X99496761Y-90313298D01*
X99574493Y-90192344D01*
X99582372Y-90165512D01*
X99798013Y-90165512D01*
X100255648Y-90958161D01*
X100255649Y-90958161D01*
X100302769Y-90906976D01*
X100438732Y-90698868D01*
X100538586Y-90471221D01*
X100599613Y-90230232D01*
X100620141Y-89982499D01*
X100599613Y-89734762D01*
X100592531Y-89706798D01*
X100592530Y-89706797D01*
X99798013Y-90165511D01*
X99798013Y-90165512D01*
X99582372Y-90165512D01*
X99615000Y-90054389D01*
X99615000Y-89910611D01*
X99574493Y-89772656D01*
X99496761Y-89651702D01*
X99388100Y-89557548D01*
X99257315Y-89497820D01*
X99150763Y-89482500D01*
X99079237Y-89482500D01*
X98972685Y-89497820D01*
X98841900Y-89557548D01*
X98733239Y-89651702D01*
X98655507Y-89772656D01*
X98615000Y-89910611D01*
X98615000Y-90054389D01*
X97990481Y-90054389D01*
X98431985Y-89799487D01*
X98431985Y-89799486D01*
X98397563Y-89739864D01*
X98375284Y-89733895D01*
X98315624Y-89697529D01*
X98299991Y-89676120D01*
X97831987Y-88865513D01*
X97831986Y-88865513D01*
X97038774Y-89323473D01*
X97038774Y-89323474D01*
X84398945Y-89323474D01*
X84367886Y-89239613D01*
X84260254Y-89066931D01*
X84253803Y-89060144D01*
X84120059Y-88919447D01*
X83953049Y-88803205D01*
X83766058Y-88722960D01*
X83566741Y-88682000D01*
X80914258Y-88682000D01*
X80911147Y-88682316D01*
X80911134Y-88682317D01*
X80762559Y-88697426D01*
X80568412Y-88758341D01*
X80390500Y-88857089D01*
X80236104Y-88989635D01*
X80111551Y-89150542D01*
X80021940Y-89333227D01*
X79970937Y-89530216D01*
X79960630Y-89733437D01*
X58010500Y-89733437D01*
X58010500Y-87432500D01*
X65209356Y-87432500D01*
X65229891Y-87680316D01*
X65229891Y-87680319D01*
X65229892Y-87680321D01*
X65290937Y-87921381D01*
X65325197Y-87999486D01*
X65390825Y-88149104D01*
X65390827Y-88149107D01*
X65526836Y-88357285D01*
X65695256Y-88540238D01*
X65695259Y-88540240D01*
X65891485Y-88692970D01*
X65891487Y-88692971D01*
X65891491Y-88692974D01*
X66110190Y-88811328D01*
X66345386Y-88892071D01*
X66590665Y-88933000D01*
X66839335Y-88933000D01*
X67084614Y-88892071D01*
X67319810Y-88811328D01*
X67538509Y-88692974D01*
X67734744Y-88540238D01*
X67903164Y-88357285D01*
X68017357Y-88182499D01*
X96509858Y-88182499D01*
X96530386Y-88430236D01*
X96537467Y-88458201D01*
X96890481Y-88254389D01*
X97515000Y-88254389D01*
X97555507Y-88392344D01*
X97633239Y-88513298D01*
X97741900Y-88607452D01*
X97872685Y-88667180D01*
X97979237Y-88682500D01*
X98050763Y-88682500D01*
X98157315Y-88667180D01*
X98288100Y-88607452D01*
X98396761Y-88513298D01*
X98474493Y-88392344D01*
X98482372Y-88365511D01*
X98698013Y-88365511D01*
X98732435Y-88425134D01*
X98754717Y-88431105D01*
X98814376Y-88467471D01*
X98830008Y-88488879D01*
X99298011Y-89299485D01*
X99298012Y-89299485D01*
X100091224Y-88841525D01*
X100091224Y-88841524D01*
X99938233Y-88722446D01*
X99719606Y-88604131D01*
X99582970Y-88557224D01*
X99525955Y-88516839D01*
X99499824Y-88452039D01*
X99499657Y-88429703D01*
X99520141Y-88182499D01*
X99499613Y-87934762D01*
X99492531Y-87906798D01*
X99492530Y-87906797D01*
X98698013Y-88365511D01*
X98482372Y-88365511D01*
X98515000Y-88254389D01*
X98515000Y-88110611D01*
X98474493Y-87972656D01*
X98396761Y-87851702D01*
X98288100Y-87757548D01*
X98157315Y-87697820D01*
X98050763Y-87682500D01*
X97979237Y-87682500D01*
X97872685Y-87697820D01*
X97741900Y-87757548D01*
X97633239Y-87851702D01*
X97555507Y-87972656D01*
X97515000Y-88110611D01*
X97515000Y-88254389D01*
X96890481Y-88254389D01*
X97331985Y-87999487D01*
X97331985Y-87999486D01*
X96874350Y-87206838D01*
X96874349Y-87206838D01*
X96827233Y-87258021D01*
X96691266Y-87466134D01*
X96591413Y-87693778D01*
X96530386Y-87934767D01*
X96509858Y-88182499D01*
X68017357Y-88182499D01*
X68039173Y-88149107D01*
X68139063Y-87921381D01*
X68200108Y-87680321D01*
X68220643Y-87432500D01*
X68215174Y-87366496D01*
X68211093Y-87317240D01*
X68225174Y-87248804D01*
X68274019Y-87198845D01*
X68334669Y-87183000D01*
X68339335Y-87183000D01*
X68584614Y-87142071D01*
X68819810Y-87061328D01*
X69038509Y-86942974D01*
X69234744Y-86790238D01*
X69310892Y-86707519D01*
X97740769Y-86707519D01*
X98198011Y-87499485D01*
X98198012Y-87499485D01*
X98991224Y-87041525D01*
X98991224Y-87041524D01*
X98838233Y-86922446D01*
X98833711Y-86919999D01*
X108494531Y-86919999D01*
X108514364Y-87146689D01*
X108573261Y-87366497D01*
X108669432Y-87572735D01*
X108799953Y-87759140D01*
X108960859Y-87920046D01*
X109147264Y-88050567D01*
X109147265Y-88050567D01*
X109147266Y-88050568D01*
X109353504Y-88146739D01*
X109573308Y-88205635D01*
X109800000Y-88225468D01*
X110026692Y-88205635D01*
X110246496Y-88146739D01*
X110452734Y-88050568D01*
X110639139Y-87920047D01*
X110800047Y-87759139D01*
X110930568Y-87572734D01*
X111026739Y-87366496D01*
X111085635Y-87146692D01*
X111105468Y-86920000D01*
X111085635Y-86693308D01*
X111026739Y-86473504D01*
X110930568Y-86267266D01*
X110863430Y-86171381D01*
X110800046Y-86080859D01*
X110639140Y-85919953D01*
X110452735Y-85789432D01*
X110246497Y-85693261D01*
X110026689Y-85634364D01*
X109800000Y-85614531D01*
X109573310Y-85634364D01*
X109353502Y-85693261D01*
X109147264Y-85789432D01*
X108960859Y-85919953D01*
X108799953Y-86080859D01*
X108669432Y-86267264D01*
X108573261Y-86473502D01*
X108514364Y-86693310D01*
X108494531Y-86919999D01*
X98833711Y-86919999D01*
X98619606Y-86804131D01*
X98384493Y-86723416D01*
X98139293Y-86682500D01*
X97890706Y-86682500D01*
X97740769Y-86707519D01*
X69310892Y-86707519D01*
X69403164Y-86607285D01*
X69539173Y-86399107D01*
X69639063Y-86171381D01*
X69700108Y-85930321D01*
X69720643Y-85682500D01*
X69700108Y-85434679D01*
X69639063Y-85193619D01*
X69639061Y-85193616D01*
X69636540Y-85183658D01*
X69637861Y-85183323D01*
X69630331Y-85124708D01*
X69660309Y-85061596D01*
X69719649Y-85024710D01*
X69789510Y-85025761D01*
X69811808Y-85035145D01*
X69860190Y-85061328D01*
X70095386Y-85142071D01*
X70340665Y-85183000D01*
X70589335Y-85183000D01*
X70834614Y-85142071D01*
X71069810Y-85061328D01*
X71288509Y-84942974D01*
X71484744Y-84790238D01*
X71653164Y-84607285D01*
X71789173Y-84399107D01*
X71889063Y-84171381D01*
X71950108Y-83930321D01*
X71970643Y-83682500D01*
X71950108Y-83434679D01*
X71889063Y-83193619D01*
X71789173Y-82965893D01*
X71653164Y-82757715D01*
X71484744Y-82574762D01*
X71429509Y-82531771D01*
X71288514Y-82422029D01*
X71288510Y-82422026D01*
X71288509Y-82422026D01*
X71069810Y-82303672D01*
X71069806Y-82303670D01*
X71069805Y-82303670D01*
X70865224Y-82233437D01*
X79960630Y-82233437D01*
X79991443Y-82434571D01*
X80062113Y-82625386D01*
X80169745Y-82798068D01*
X80169748Y-82798071D01*
X80309941Y-82945553D01*
X80476951Y-83061795D01*
X80663942Y-83142040D01*
X80863259Y-83183000D01*
X80863261Y-83183000D01*
X83512600Y-83183000D01*
X83515742Y-83183000D01*
X83667438Y-83167574D01*
X83861588Y-83106659D01*
X84039502Y-83007909D01*
X84193895Y-82875366D01*
X84318448Y-82714458D01*
X84408060Y-82531771D01*
X84459063Y-82334785D01*
X84469369Y-82131564D01*
X84451749Y-82016550D01*
X84438873Y-81932499D01*
X89709356Y-81932499D01*
X89729891Y-82180316D01*
X89729891Y-82180319D01*
X89729892Y-82180321D01*
X89790937Y-82421381D01*
X89835960Y-82524023D01*
X89890825Y-82649104D01*
X89890827Y-82649107D01*
X90026836Y-82857285D01*
X90195256Y-83040238D01*
X90251047Y-83083662D01*
X90391485Y-83192970D01*
X90391487Y-83192971D01*
X90391491Y-83192974D01*
X90610190Y-83311328D01*
X90845386Y-83392071D01*
X91090665Y-83433000D01*
X91339335Y-83433000D01*
X91584614Y-83392071D01*
X91819810Y-83311328D01*
X92038509Y-83192974D01*
X92234744Y-83040238D01*
X92403164Y-82857285D01*
X92539173Y-82649107D01*
X92626510Y-82449999D01*
X110682676Y-82449999D01*
X110701929Y-82670065D01*
X110759106Y-82883451D01*
X110812382Y-82997701D01*
X110852466Y-83083662D01*
X110979174Y-83264620D01*
X111135380Y-83420826D01*
X111316338Y-83547534D01*
X111516550Y-83640894D01*
X111729932Y-83698070D01*
X111950000Y-83717323D01*
X112170068Y-83698070D01*
X112383450Y-83640894D01*
X112583662Y-83547534D01*
X112764620Y-83420826D01*
X112920826Y-83264620D01*
X113047534Y-83083662D01*
X113087618Y-82997700D01*
X113133790Y-82945262D01*
X113200984Y-82926110D01*
X113267865Y-82946326D01*
X113312381Y-82997700D01*
X113352466Y-83083662D01*
X113479174Y-83264620D01*
X113635380Y-83420826D01*
X113816338Y-83547534D01*
X114016550Y-83640894D01*
X114229932Y-83698070D01*
X114376643Y-83710905D01*
X114449999Y-83717323D01*
X114449999Y-83717322D01*
X114450000Y-83717323D01*
X114670068Y-83698070D01*
X114779008Y-83668878D01*
X114790069Y-83666450D01*
X116035788Y-83452292D01*
X116056797Y-83450500D01*
X119104217Y-83450500D01*
X119171256Y-83470185D01*
X119191898Y-83486819D01*
X119797882Y-84092803D01*
X119831367Y-84154126D01*
X119826383Y-84223818D01*
X119784511Y-84279751D01*
X119728683Y-84303099D01*
X119500542Y-84337486D01*
X119500542Y-84337487D01*
X119256996Y-84412611D01*
X119027366Y-84523195D01*
X118951731Y-84574762D01*
X118816781Y-84666769D01*
X118718766Y-84757714D01*
X118629950Y-84840123D01*
X118482747Y-85024710D01*
X118471038Y-85039392D01*
X118343608Y-85260108D01*
X118250492Y-85497362D01*
X118193777Y-85745845D01*
X118174731Y-86000000D01*
X118193777Y-86254154D01*
X118250492Y-86502637D01*
X118343608Y-86739891D01*
X118372676Y-86790238D01*
X118471041Y-86960612D01*
X118629950Y-87159877D01*
X118816783Y-87333232D01*
X119027366Y-87476805D01*
X119256996Y-87587389D01*
X119500542Y-87662513D01*
X119752565Y-87700500D01*
X120007435Y-87700500D01*
X120259458Y-87662513D01*
X120503004Y-87587389D01*
X120732634Y-87476805D01*
X120943217Y-87333232D01*
X121130050Y-87159877D01*
X121288959Y-86960612D01*
X121416393Y-86739888D01*
X121509508Y-86502637D01*
X121566222Y-86254157D01*
X121573420Y-86158091D01*
X121598060Y-86092710D01*
X121654135Y-86051029D01*
X121723843Y-86046281D01*
X121784755Y-86079676D01*
X132785768Y-97080688D01*
X132808409Y-97111756D01*
X133458017Y-98377644D01*
X133468586Y-98406663D01*
X133490492Y-98502639D01*
X133583608Y-98739891D01*
X133671469Y-98892071D01*
X133711041Y-98960612D01*
X133869950Y-99159877D01*
X134056783Y-99333232D01*
X134267366Y-99476805D01*
X134496996Y-99587389D01*
X134740542Y-99662513D01*
X134992565Y-99700500D01*
X135247435Y-99700500D01*
X135499458Y-99662513D01*
X135743004Y-99587389D01*
X135972634Y-99476805D01*
X136183217Y-99333232D01*
X136370050Y-99159877D01*
X136528959Y-98960612D01*
X136656393Y-98739888D01*
X136749508Y-98502637D01*
X136806222Y-98254157D01*
X136825268Y-98000000D01*
X136806222Y-97745843D01*
X136749508Y-97497363D01*
X136656393Y-97260112D01*
X136612844Y-97184683D01*
X136528961Y-97039392D01*
X136528959Y-97039388D01*
X136370050Y-96840123D01*
X136183217Y-96666768D01*
X135972634Y-96523195D01*
X135866602Y-96472132D01*
X135743003Y-96412610D01*
X135533774Y-96348071D01*
X135514121Y-96340112D01*
X134231457Y-95687909D01*
X134199979Y-95665058D01*
X130534920Y-91999999D01*
X133414731Y-91999999D01*
X133433777Y-92254154D01*
X133490492Y-92502637D01*
X133583608Y-92739891D01*
X133711038Y-92960607D01*
X133711041Y-92960612D01*
X133869950Y-93159877D01*
X134056783Y-93333232D01*
X134267366Y-93476805D01*
X134496996Y-93587389D01*
X134740542Y-93662513D01*
X134992565Y-93700500D01*
X135247435Y-93700500D01*
X135499458Y-93662513D01*
X135743004Y-93587389D01*
X135972634Y-93476805D01*
X136183217Y-93333232D01*
X136370050Y-93159877D01*
X136528959Y-92960612D01*
X136656393Y-92739888D01*
X136749508Y-92502637D01*
X136806222Y-92254157D01*
X136825268Y-92000000D01*
X136806222Y-91745843D01*
X136749508Y-91497363D01*
X136656393Y-91260112D01*
X136646255Y-91242553D01*
X136528961Y-91039392D01*
X136528959Y-91039388D01*
X136370050Y-90840123D01*
X136183217Y-90666768D01*
X135972634Y-90523195D01*
X135743004Y-90412611D01*
X135499458Y-90337487D01*
X135247435Y-90299500D01*
X134992565Y-90299500D01*
X134740542Y-90337487D01*
X134496996Y-90412611D01*
X134267366Y-90523195D01*
X134210752Y-90561794D01*
X134056781Y-90666769D01*
X133869950Y-90840123D01*
X133711038Y-91039392D01*
X133583608Y-91260108D01*
X133490492Y-91497362D01*
X133433777Y-91745845D01*
X133414731Y-91999999D01*
X130534920Y-91999999D01*
X120287567Y-81752647D01*
X120285412Y-81750438D01*
X120225059Y-81686947D01*
X120176640Y-81653246D01*
X120169118Y-81647575D01*
X120123405Y-81610300D01*
X120096440Y-81596215D01*
X120083019Y-81588084D01*
X120058049Y-81570705D01*
X120058048Y-81570704D01*
X120058046Y-81570703D01*
X120003845Y-81547443D01*
X119995336Y-81543402D01*
X119943053Y-81516092D01*
X119937126Y-81514396D01*
X119913798Y-81507721D01*
X119899020Y-81502459D01*
X119871058Y-81490460D01*
X119813272Y-81478583D01*
X119804128Y-81476338D01*
X119747421Y-81460113D01*
X119717075Y-81457802D01*
X119701534Y-81455622D01*
X119671742Y-81449500D01*
X119671741Y-81449500D01*
X119612758Y-81449500D01*
X119603344Y-81449142D01*
X119594198Y-81448445D01*
X119544524Y-81444663D01*
X119544523Y-81444663D01*
X119544522Y-81444663D01*
X119514349Y-81448506D01*
X119498683Y-81449500D01*
X116056803Y-81449500D01*
X116035794Y-81447707D01*
X116012015Y-81443619D01*
X114790073Y-81233547D01*
X114778999Y-81231117D01*
X114670068Y-81201930D01*
X114670067Y-81201929D01*
X114670064Y-81201929D01*
X114532616Y-81189904D01*
X114527601Y-81189362D01*
X114508260Y-81186873D01*
X114508189Y-81186865D01*
X114506935Y-81186704D01*
X114504968Y-81186535D01*
X114502017Y-81186564D01*
X114502000Y-81186564D01*
X114501239Y-81186572D01*
X114489197Y-81186106D01*
X114449999Y-81182676D01*
X114229934Y-81201929D01*
X114016548Y-81259106D01*
X113816338Y-81352466D01*
X113635379Y-81479174D01*
X113479174Y-81635379D01*
X113352467Y-81816336D01*
X113312381Y-81902300D01*
X113266207Y-81954739D01*
X113199014Y-81973890D01*
X113132133Y-81953673D01*
X113087617Y-81902298D01*
X113047534Y-81816339D01*
X112933337Y-81653248D01*
X112920826Y-81635380D01*
X112764620Y-81479174D01*
X112583662Y-81352466D01*
X112383451Y-81259106D01*
X112170065Y-81201929D01*
X111949999Y-81182676D01*
X111729934Y-81201929D01*
X111516548Y-81259106D01*
X111316338Y-81352466D01*
X111135379Y-81479174D01*
X110979174Y-81635379D01*
X110852466Y-81816338D01*
X110759106Y-82016548D01*
X110701929Y-82229934D01*
X110682676Y-82449999D01*
X92626510Y-82449999D01*
X92639063Y-82421381D01*
X92700108Y-82180321D01*
X92720643Y-81932500D01*
X92700108Y-81684679D01*
X92639063Y-81443619D01*
X92539173Y-81215893D01*
X92403164Y-81007715D01*
X92234744Y-80824762D01*
X92212612Y-80807536D01*
X92038514Y-80672029D01*
X92038510Y-80672026D01*
X92038509Y-80672026D01*
X91819810Y-80553672D01*
X91819806Y-80553670D01*
X91819805Y-80553670D01*
X91584615Y-80472929D01*
X91339335Y-80432000D01*
X91090665Y-80432000D01*
X90845384Y-80472929D01*
X90610194Y-80553670D01*
X90391485Y-80672029D01*
X90195259Y-80824759D01*
X90195256Y-80824761D01*
X90195256Y-80824762D01*
X90121527Y-80904853D01*
X90026837Y-81007714D01*
X89890825Y-81215895D01*
X89801540Y-81419446D01*
X89790937Y-81443619D01*
X89729892Y-81684679D01*
X89729891Y-81684683D01*
X89709356Y-81932499D01*
X84438873Y-81932499D01*
X84438556Y-81930428D01*
X84367886Y-81739613D01*
X84260254Y-81566931D01*
X84237888Y-81543402D01*
X84120059Y-81419447D01*
X83953049Y-81303205D01*
X83766058Y-81222960D01*
X83566741Y-81182000D01*
X80914258Y-81182000D01*
X80911147Y-81182316D01*
X80911134Y-81182317D01*
X80762559Y-81197426D01*
X80568412Y-81258341D01*
X80390500Y-81357089D01*
X80236104Y-81489635D01*
X80111551Y-81650542D01*
X80021940Y-81833227D01*
X79996773Y-81930429D01*
X79985521Y-81973890D01*
X79970937Y-82030216D01*
X79960630Y-82233437D01*
X70865224Y-82233437D01*
X70834615Y-82222929D01*
X70589335Y-82182000D01*
X70340665Y-82182000D01*
X70095384Y-82222929D01*
X69860194Y-82303670D01*
X69641485Y-82422029D01*
X69445259Y-82574759D01*
X69445256Y-82574761D01*
X69445256Y-82574762D01*
X69357521Y-82670068D01*
X69276837Y-82757714D01*
X69140825Y-82965895D01*
X69040938Y-83193617D01*
X68979891Y-83434683D01*
X68959356Y-83682500D01*
X68979891Y-83930316D01*
X68979891Y-83930319D01*
X68979892Y-83930321D01*
X69040937Y-84171381D01*
X69040938Y-84171383D01*
X69043460Y-84181342D01*
X69042139Y-84181676D01*
X69049667Y-84240297D01*
X69019686Y-84303408D01*
X68960344Y-84340291D01*
X68890482Y-84339236D01*
X68868192Y-84329855D01*
X68819808Y-84303671D01*
X68584615Y-84222929D01*
X68339335Y-84182000D01*
X68090665Y-84182000D01*
X67845384Y-84222929D01*
X67610194Y-84303670D01*
X67610190Y-84303671D01*
X67610190Y-84303672D01*
X67542855Y-84340112D01*
X67391485Y-84422029D01*
X67195259Y-84574759D01*
X67195256Y-84574761D01*
X67195256Y-84574762D01*
X67026836Y-84757715D01*
X66981499Y-84827107D01*
X66890825Y-84965895D01*
X66790938Y-85193617D01*
X66729891Y-85434683D01*
X66709356Y-85682500D01*
X66718907Y-85797760D01*
X66704826Y-85866196D01*
X66655981Y-85916155D01*
X66595331Y-85932000D01*
X66590665Y-85932000D01*
X66345384Y-85972929D01*
X66110194Y-86053670D01*
X65891485Y-86172029D01*
X65695259Y-86324759D01*
X65695256Y-86324761D01*
X65695256Y-86324762D01*
X65531511Y-86502637D01*
X65526837Y-86507714D01*
X65390825Y-86715895D01*
X65358216Y-86790238D01*
X65290937Y-86943619D01*
X65239512Y-87146692D01*
X65229891Y-87184683D01*
X65209356Y-87432500D01*
X58010500Y-87432500D01*
X58010500Y-79000000D01*
X93394644Y-79000000D01*
X93414039Y-79271161D01*
X93471823Y-79536796D01*
X93471825Y-79536801D01*
X93566828Y-79791513D01*
X93566830Y-79791517D01*
X93566831Y-79791519D01*
X93697109Y-80030108D01*
X93697113Y-80030113D01*
X93860029Y-80247742D01*
X94052258Y-80439971D01*
X94204141Y-80553670D01*
X94269891Y-80602890D01*
X94465802Y-80709864D01*
X94508487Y-80733172D01*
X94763199Y-80828175D01*
X94763202Y-80828175D01*
X94763203Y-80828176D01*
X94812852Y-80838976D01*
X95028840Y-80885961D01*
X95300000Y-80905355D01*
X95571160Y-80885961D01*
X95836801Y-80828175D01*
X96091513Y-80733172D01*
X96330113Y-80602887D01*
X96547742Y-80439971D01*
X96739971Y-80247742D01*
X96902887Y-80030113D01*
X97033172Y-79791513D01*
X97128175Y-79536801D01*
X97185961Y-79271160D01*
X97205355Y-79000000D01*
X97185961Y-78728840D01*
X97128175Y-78463199D01*
X97033172Y-78208487D01*
X96939473Y-78036889D01*
X96902890Y-77969891D01*
X96901685Y-77968281D01*
X96739971Y-77752258D01*
X96547742Y-77560029D01*
X96330113Y-77397113D01*
X96330114Y-77397113D01*
X96330108Y-77397109D01*
X96091519Y-77266831D01*
X96091517Y-77266830D01*
X96091513Y-77266828D01*
X95955721Y-77216180D01*
X95899791Y-77174310D01*
X95875374Y-77108846D01*
X95890226Y-77040573D01*
X95939631Y-76991168D01*
X95955713Y-76983822D01*
X96091513Y-76933172D01*
X96297482Y-76820705D01*
X96330108Y-76802890D01*
X96330109Y-76802889D01*
X96330113Y-76802887D01*
X96547742Y-76639971D01*
X96739971Y-76447742D01*
X96902887Y-76230113D01*
X97033172Y-75991513D01*
X97128175Y-75736801D01*
X97185961Y-75471160D01*
X97205355Y-75200000D01*
X97185961Y-74928840D01*
X97128175Y-74663199D01*
X97033172Y-74408487D01*
X97009864Y-74365802D01*
X96902890Y-74169891D01*
X96901685Y-74168281D01*
X96739971Y-73952258D01*
X96547742Y-73760029D01*
X96330113Y-73597113D01*
X96330114Y-73597113D01*
X96330108Y-73597109D01*
X96091519Y-73466831D01*
X96091517Y-73466830D01*
X96091513Y-73466828D01*
X95836801Y-73371825D01*
X95836796Y-73371823D01*
X95571161Y-73314039D01*
X95300000Y-73294644D01*
X95028838Y-73314039D01*
X94763203Y-73371823D01*
X94618956Y-73425624D01*
X94508487Y-73466828D01*
X94508484Y-73466829D01*
X94508480Y-73466831D01*
X94269891Y-73597109D01*
X94052255Y-73760031D01*
X93860031Y-73952255D01*
X93697109Y-74169891D01*
X93566831Y-74408480D01*
X93471823Y-74663203D01*
X93414039Y-74928838D01*
X93394644Y-75200000D01*
X93414039Y-75471161D01*
X93471823Y-75736796D01*
X93471825Y-75736801D01*
X93566828Y-75991513D01*
X93566830Y-75991517D01*
X93566831Y-75991519D01*
X93697109Y-76230108D01*
X93697113Y-76230113D01*
X93860029Y-76447742D01*
X94052258Y-76639971D01*
X94206665Y-76755559D01*
X94269891Y-76802890D01*
X94443296Y-76897575D01*
X94508487Y-76933172D01*
X94644276Y-76983818D01*
X94700208Y-77025690D01*
X94724625Y-77091154D01*
X94709773Y-77159427D01*
X94660367Y-77208832D01*
X94644280Y-77216179D01*
X94508487Y-77266828D01*
X94508484Y-77266829D01*
X94508480Y-77266831D01*
X94269891Y-77397109D01*
X94052255Y-77560031D01*
X93860031Y-77752255D01*
X93697109Y-77969891D01*
X93566831Y-78208480D01*
X93566829Y-78208484D01*
X93566828Y-78208487D01*
X93545657Y-78265248D01*
X93471823Y-78463203D01*
X93414039Y-78728838D01*
X93394644Y-79000000D01*
X58010500Y-79000000D01*
X58010500Y-71578303D01*
X68128802Y-71578303D01*
X68340539Y-71680269D01*
X68598339Y-71759791D01*
X68865109Y-71800000D01*
X69134891Y-71800000D01*
X69401660Y-71759791D01*
X69659457Y-71680270D01*
X69871193Y-71578303D01*
X76128802Y-71578303D01*
X76340539Y-71680269D01*
X76598339Y-71759791D01*
X76865109Y-71800000D01*
X77134891Y-71800000D01*
X77401660Y-71759791D01*
X77659457Y-71680270D01*
X77871195Y-71578302D01*
X77000000Y-70707107D01*
X76128802Y-71578303D01*
X69871193Y-71578303D01*
X69871195Y-71578302D01*
X69000000Y-70707107D01*
X68128802Y-71578303D01*
X58010500Y-71578303D01*
X58010500Y-69999999D01*
X67194952Y-69999999D01*
X67215113Y-70269026D01*
X67275146Y-70532049D01*
X67373708Y-70783178D01*
X67423489Y-70869402D01*
X68207897Y-70084995D01*
X68300000Y-70084995D01*
X68340682Y-70250046D01*
X68419680Y-70400566D01*
X68532405Y-70527806D01*
X68672305Y-70624371D01*
X68831249Y-70684651D01*
X68957660Y-70700000D01*
X69042340Y-70700000D01*
X69168751Y-70684651D01*
X69327695Y-70624371D01*
X69467595Y-70527806D01*
X69580320Y-70400566D01*
X69659318Y-70250046D01*
X69700000Y-70084995D01*
X69700000Y-69999999D01*
X69707107Y-69999999D01*
X70576509Y-70869403D01*
X70576510Y-70869403D01*
X70626291Y-70783179D01*
X70724853Y-70532049D01*
X70784886Y-70269026D01*
X70805047Y-70000000D01*
X75194952Y-70000000D01*
X75215113Y-70269026D01*
X75275146Y-70532049D01*
X75373708Y-70783178D01*
X75423489Y-70869402D01*
X75423490Y-70869403D01*
X76207898Y-70084995D01*
X76300000Y-70084995D01*
X76340682Y-70250046D01*
X76419680Y-70400566D01*
X76532405Y-70527806D01*
X76672305Y-70624371D01*
X76831249Y-70684651D01*
X76957660Y-70700000D01*
X77042340Y-70700000D01*
X77168751Y-70684651D01*
X77327695Y-70624371D01*
X77467595Y-70527806D01*
X77580320Y-70400566D01*
X77659318Y-70250046D01*
X77700000Y-70084995D01*
X77700000Y-70000000D01*
X77707107Y-70000000D01*
X78576509Y-70869403D01*
X78576510Y-70869403D01*
X78626291Y-70783179D01*
X78724853Y-70532049D01*
X78784886Y-70269026D01*
X78805047Y-70000000D01*
X78784886Y-69730973D01*
X78724853Y-69467950D01*
X78626291Y-69216820D01*
X78576509Y-69130595D01*
X77707107Y-69999999D01*
X77707107Y-70000000D01*
X77700000Y-70000000D01*
X77700000Y-69915005D01*
X77659318Y-69749954D01*
X77580320Y-69599434D01*
X77467595Y-69472194D01*
X77327695Y-69375629D01*
X77168751Y-69315349D01*
X77042340Y-69300000D01*
X76957660Y-69300000D01*
X76831249Y-69315349D01*
X76672305Y-69375629D01*
X76532405Y-69472194D01*
X76419680Y-69599434D01*
X76340682Y-69749954D01*
X76300000Y-69915005D01*
X76300000Y-70084995D01*
X76207898Y-70084995D01*
X76292893Y-70000000D01*
X75423489Y-69130596D01*
X75373706Y-69216822D01*
X75275147Y-69467950D01*
X75215113Y-69730973D01*
X75194952Y-70000000D01*
X70805047Y-70000000D01*
X70805047Y-69999999D01*
X70784886Y-69730973D01*
X70724853Y-69467950D01*
X70626291Y-69216820D01*
X70576509Y-69130595D01*
X69707107Y-69999998D01*
X69707107Y-69999999D01*
X69700000Y-69999999D01*
X69700000Y-69915005D01*
X69659318Y-69749954D01*
X69580320Y-69599434D01*
X69467595Y-69472194D01*
X69327695Y-69375629D01*
X69168751Y-69315349D01*
X69042340Y-69300000D01*
X68957660Y-69300000D01*
X68831249Y-69315349D01*
X68672305Y-69375629D01*
X68532405Y-69472194D01*
X68419680Y-69599434D01*
X68340682Y-69749954D01*
X68300000Y-69915005D01*
X68300000Y-70084995D01*
X68207897Y-70084995D01*
X68292892Y-70000000D01*
X68292892Y-69999999D01*
X67423489Y-69130596D01*
X67373706Y-69216822D01*
X67275147Y-69467950D01*
X67215113Y-69730973D01*
X67194952Y-69999999D01*
X58010500Y-69999999D01*
X58010500Y-68421696D01*
X68128803Y-68421696D01*
X68999999Y-69292892D01*
X69871195Y-68421696D01*
X76128803Y-68421696D01*
X77000000Y-69292893D01*
X77000001Y-69292893D01*
X77871196Y-68421697D01*
X77871195Y-68421695D01*
X77659460Y-68319730D01*
X77401660Y-68240208D01*
X77134891Y-68200000D01*
X76865109Y-68200000D01*
X76598339Y-68240208D01*
X76340539Y-68319730D01*
X76128803Y-68421695D01*
X76128803Y-68421696D01*
X69871195Y-68421696D01*
X69871195Y-68421695D01*
X69659460Y-68319730D01*
X69401660Y-68240208D01*
X69134891Y-68200000D01*
X68865109Y-68200000D01*
X68598339Y-68240208D01*
X68340539Y-68319730D01*
X68128803Y-68421695D01*
X68128803Y-68421696D01*
X58010500Y-68421696D01*
X58010500Y-66000000D01*
X71294731Y-66000000D01*
X71313777Y-66254154D01*
X71370492Y-66502637D01*
X71463608Y-66739891D01*
X71591038Y-66960607D01*
X71591041Y-66960612D01*
X71749950Y-67159877D01*
X71936783Y-67333232D01*
X72147366Y-67476805D01*
X72376996Y-67587389D01*
X72620542Y-67662513D01*
X72872565Y-67700500D01*
X73127435Y-67700500D01*
X73379458Y-67662513D01*
X73623004Y-67587389D01*
X73852634Y-67476805D01*
X73871275Y-67464095D01*
X73903124Y-67448516D01*
X75276356Y-67006465D01*
X75314353Y-67000500D01*
X90334217Y-67000500D01*
X90401256Y-67020185D01*
X90421898Y-67036819D01*
X97520965Y-74135886D01*
X97545268Y-74170317D01*
X98095187Y-75326780D01*
X98106887Y-75371182D01*
X98114039Y-75471161D01*
X98171823Y-75736796D01*
X98171825Y-75736801D01*
X98266828Y-75991513D01*
X98266830Y-75991517D01*
X98266831Y-75991519D01*
X98397109Y-76230108D01*
X98397113Y-76230113D01*
X98560029Y-76447742D01*
X98752258Y-76639971D01*
X98906665Y-76755559D01*
X98969891Y-76802890D01*
X99143296Y-76897575D01*
X99208487Y-76933172D01*
X99344992Y-76984086D01*
X99400924Y-77025957D01*
X99425341Y-77091421D01*
X99410489Y-77159694D01*
X99361084Y-77209099D01*
X99344991Y-77216449D01*
X99208688Y-77267287D01*
X99057144Y-77350035D01*
X99057144Y-77350037D01*
X99957107Y-78250000D01*
X99956316Y-78250000D01*
X99825861Y-78265248D01*
X99661109Y-78325213D01*
X99514627Y-78421555D01*
X99394312Y-78549082D01*
X99306650Y-78700918D01*
X99256366Y-78868877D01*
X99251159Y-78958266D01*
X98350037Y-78057144D01*
X98350035Y-78057144D01*
X98267286Y-78208690D01*
X98172306Y-78463342D01*
X98114536Y-78728910D01*
X98095146Y-79000000D01*
X98114536Y-79271089D01*
X98172306Y-79536657D01*
X98267284Y-79791306D01*
X98350036Y-79942854D01*
X98350037Y-79942854D01*
X99246593Y-79046298D01*
X99276616Y-79216567D01*
X99346059Y-79377553D01*
X99450756Y-79518185D01*
X99585062Y-79630882D01*
X99741739Y-79709568D01*
X99912338Y-79750000D01*
X99957107Y-79750000D01*
X99057144Y-80649961D01*
X99057144Y-80649962D01*
X99208694Y-80732715D01*
X99463342Y-80827693D01*
X99728910Y-80885463D01*
X99999999Y-80904853D01*
X100271089Y-80885463D01*
X100536654Y-80827694D01*
X100791307Y-80732713D01*
X100942854Y-80649962D01*
X100942854Y-80649961D01*
X100042893Y-79750000D01*
X100043684Y-79750000D01*
X100174139Y-79734752D01*
X100338891Y-79674787D01*
X100485373Y-79578445D01*
X100605688Y-79450918D01*
X100693350Y-79299082D01*
X100743634Y-79131123D01*
X100748840Y-79041733D01*
X101649961Y-79942854D01*
X101649962Y-79942854D01*
X101732713Y-79791307D01*
X101827694Y-79536654D01*
X101885463Y-79271089D01*
X101904853Y-79000000D01*
X102794644Y-79000000D01*
X102814039Y-79271161D01*
X102871823Y-79536796D01*
X102871825Y-79536801D01*
X102966828Y-79791513D01*
X102966830Y-79791517D01*
X102966831Y-79791519D01*
X103097109Y-80030108D01*
X103097113Y-80030113D01*
X103260029Y-80247742D01*
X103452258Y-80439971D01*
X103604141Y-80553670D01*
X103669891Y-80602890D01*
X103865802Y-80709864D01*
X103908487Y-80733172D01*
X104163199Y-80828175D01*
X104163202Y-80828175D01*
X104163203Y-80828176D01*
X104212852Y-80838976D01*
X104428840Y-80885961D01*
X104700000Y-80905355D01*
X104971160Y-80885961D01*
X105236801Y-80828175D01*
X105491513Y-80733172D01*
X105730113Y-80602887D01*
X105947742Y-80439971D01*
X106139971Y-80247742D01*
X106302887Y-80030113D01*
X106433172Y-79791513D01*
X106528175Y-79536801D01*
X106585961Y-79271160D01*
X106605355Y-79000000D01*
X106585961Y-78728840D01*
X106528175Y-78463199D01*
X106433172Y-78208487D01*
X106432143Y-78206603D01*
X118344199Y-78206603D01*
X118365699Y-78432842D01*
X118427246Y-78651593D01*
X118427249Y-78651599D01*
X118526870Y-78855853D01*
X118526871Y-78855855D01*
X118526872Y-78855856D01*
X118661359Y-79039035D01*
X118736695Y-79110347D01*
X118826402Y-79195264D01*
X119016684Y-79319509D01*
X119226094Y-79407783D01*
X119447899Y-79457246D01*
X119674972Y-79466310D01*
X119900015Y-79434681D01*
X120115794Y-79363380D01*
X120315373Y-79254694D01*
X120492338Y-79112119D01*
X120641003Y-78940237D01*
X120648517Y-78927515D01*
X120699558Y-78879806D01*
X120721442Y-78871287D01*
X121307088Y-78705204D01*
X121340920Y-78700500D01*
X126354217Y-78700500D01*
X126421256Y-78720185D01*
X126441898Y-78736819D01*
X132785769Y-85080690D01*
X132808410Y-85111758D01*
X133458017Y-86377644D01*
X133468586Y-86406663D01*
X133490492Y-86502639D01*
X133583608Y-86739891D01*
X133612676Y-86790238D01*
X133711041Y-86960612D01*
X133869950Y-87159877D01*
X134056783Y-87333232D01*
X134267366Y-87476805D01*
X134496996Y-87587389D01*
X134740542Y-87662513D01*
X134992565Y-87700500D01*
X135247435Y-87700500D01*
X135499458Y-87662513D01*
X135743004Y-87587389D01*
X135972634Y-87476805D01*
X136183217Y-87333232D01*
X136370050Y-87159877D01*
X136528959Y-86960612D01*
X136656393Y-86739888D01*
X136749508Y-86502637D01*
X136806222Y-86254157D01*
X136825268Y-86000000D01*
X136806222Y-85745843D01*
X136749508Y-85497363D01*
X136656393Y-85260112D01*
X136618002Y-85193617D01*
X136560748Y-85094449D01*
X136528959Y-85039388D01*
X136370050Y-84840123D01*
X136183217Y-84666768D01*
X135972634Y-84523195D01*
X135866602Y-84472133D01*
X135743003Y-84412610D01*
X135533774Y-84348071D01*
X135514121Y-84340112D01*
X134231455Y-83687908D01*
X134199977Y-83665057D01*
X127537567Y-77002647D01*
X127535412Y-77000438D01*
X127475059Y-76936947D01*
X127426640Y-76903246D01*
X127419118Y-76897575D01*
X127373405Y-76860300D01*
X127346440Y-76846215D01*
X127333019Y-76838084D01*
X127308049Y-76820705D01*
X127308048Y-76820704D01*
X127308046Y-76820703D01*
X127253845Y-76797443D01*
X127245336Y-76793402D01*
X127193053Y-76766092D01*
X127187126Y-76764396D01*
X127163798Y-76757721D01*
X127149020Y-76752459D01*
X127121058Y-76740460D01*
X127063272Y-76728583D01*
X127054128Y-76726338D01*
X126997421Y-76710113D01*
X126967075Y-76707802D01*
X126951534Y-76705622D01*
X126921742Y-76699500D01*
X126921741Y-76699500D01*
X126862758Y-76699500D01*
X126853344Y-76699142D01*
X126844198Y-76698445D01*
X126794524Y-76694663D01*
X126794523Y-76694663D01*
X126794522Y-76694663D01*
X126764349Y-76698506D01*
X126748683Y-76699500D01*
X121357300Y-76699500D01*
X121316220Y-76692498D01*
X120902162Y-76547116D01*
X120845430Y-76506333D01*
X120843288Y-76503502D01*
X120738639Y-76360963D01*
X120656118Y-76282849D01*
X120573598Y-76204737D01*
X120383316Y-76080491D01*
X120279245Y-76036621D01*
X120173904Y-75992216D01*
X119952100Y-75942753D01*
X119725028Y-75933691D01*
X119499989Y-75965318D01*
X119499986Y-75965318D01*
X119499985Y-75965319D01*
X119284206Y-76036621D01*
X119284204Y-76036621D01*
X119284204Y-76036622D01*
X119084626Y-76145306D01*
X118907660Y-76287883D01*
X118758999Y-76459760D01*
X118643412Y-76655430D01*
X118564623Y-76868588D01*
X118359106Y-78034137D01*
X118358621Y-78036889D01*
X118358386Y-78039646D01*
X118358384Y-78039667D01*
X118344199Y-78206603D01*
X106432143Y-78206603D01*
X106339473Y-78036889D01*
X106302890Y-77969891D01*
X106301685Y-77968281D01*
X106139971Y-77752258D01*
X105947742Y-77560029D01*
X105730113Y-77397113D01*
X105730114Y-77397113D01*
X105730108Y-77397109D01*
X105491519Y-77266831D01*
X105491517Y-77266830D01*
X105491513Y-77266828D01*
X105355721Y-77216180D01*
X105299791Y-77174310D01*
X105275374Y-77108846D01*
X105290226Y-77040573D01*
X105339631Y-76991168D01*
X105355713Y-76983822D01*
X105491513Y-76933172D01*
X105697482Y-76820705D01*
X105730108Y-76802890D01*
X105730109Y-76802889D01*
X105730113Y-76802887D01*
X105947742Y-76639971D01*
X106139971Y-76447742D01*
X106302887Y-76230113D01*
X106433172Y-75991513D01*
X106528175Y-75736801D01*
X106585961Y-75471160D01*
X106605355Y-75200000D01*
X106585961Y-74928840D01*
X106528175Y-74663199D01*
X106433172Y-74408487D01*
X106409864Y-74365802D01*
X106302890Y-74169891D01*
X106301685Y-74168281D01*
X106139971Y-73952258D01*
X105947742Y-73760029D01*
X105730113Y-73597113D01*
X105730114Y-73597113D01*
X105730108Y-73597109D01*
X105491519Y-73466831D01*
X105491517Y-73466830D01*
X105491513Y-73466828D01*
X105236801Y-73371825D01*
X105236796Y-73371823D01*
X104971161Y-73314039D01*
X104700000Y-73294644D01*
X104428838Y-73314039D01*
X104163203Y-73371823D01*
X104018956Y-73425624D01*
X103908487Y-73466828D01*
X103908484Y-73466829D01*
X103908480Y-73466831D01*
X103669891Y-73597109D01*
X103452255Y-73760031D01*
X103260031Y-73952255D01*
X103097109Y-74169891D01*
X102966831Y-74408480D01*
X102871823Y-74663203D01*
X102814039Y-74928838D01*
X102794644Y-75200000D01*
X102814039Y-75471161D01*
X102871823Y-75736796D01*
X102871825Y-75736801D01*
X102966828Y-75991513D01*
X102966830Y-75991517D01*
X102966831Y-75991519D01*
X103097109Y-76230108D01*
X103097113Y-76230113D01*
X103260029Y-76447742D01*
X103452258Y-76639971D01*
X103606665Y-76755559D01*
X103669891Y-76802890D01*
X103843296Y-76897575D01*
X103908487Y-76933172D01*
X104044276Y-76983818D01*
X104100208Y-77025690D01*
X104124625Y-77091154D01*
X104109773Y-77159427D01*
X104060367Y-77208832D01*
X104044280Y-77216179D01*
X103908487Y-77266828D01*
X103908484Y-77266829D01*
X103908480Y-77266831D01*
X103669891Y-77397109D01*
X103452255Y-77560031D01*
X103260031Y-77752255D01*
X103097109Y-77969891D01*
X102966831Y-78208480D01*
X102966829Y-78208484D01*
X102966828Y-78208487D01*
X102945657Y-78265248D01*
X102871823Y-78463203D01*
X102814039Y-78728838D01*
X102794644Y-79000000D01*
X101904853Y-79000000D01*
X101904853Y-78999999D01*
X101885463Y-78728910D01*
X101827693Y-78463342D01*
X101732715Y-78208694D01*
X101649961Y-78057144D01*
X100753405Y-78953700D01*
X100723384Y-78783433D01*
X100653941Y-78622447D01*
X100549244Y-78481815D01*
X100414938Y-78369118D01*
X100258261Y-78290432D01*
X100087662Y-78250000D01*
X100042894Y-78250000D01*
X100942854Y-77350037D01*
X100942854Y-77350036D01*
X100791306Y-77267284D01*
X100655009Y-77216449D01*
X100599075Y-77174578D01*
X100574658Y-77109113D01*
X100589510Y-77040840D01*
X100638915Y-76991435D01*
X100654997Y-76984089D01*
X100791513Y-76933172D01*
X100997482Y-76820705D01*
X101030108Y-76802890D01*
X101030109Y-76802889D01*
X101030113Y-76802887D01*
X101247742Y-76639971D01*
X101439971Y-76447742D01*
X101602887Y-76230113D01*
X101733172Y-75991513D01*
X101828175Y-75736801D01*
X101885961Y-75471160D01*
X101905355Y-75200000D01*
X101885961Y-74928840D01*
X101828175Y-74663199D01*
X101733172Y-74408487D01*
X101709864Y-74365802D01*
X101602890Y-74169891D01*
X101601685Y-74168281D01*
X101439971Y-73952258D01*
X101247742Y-73760029D01*
X101030113Y-73597113D01*
X101030114Y-73597113D01*
X101030108Y-73597109D01*
X100791519Y-73466831D01*
X100791517Y-73466830D01*
X100791513Y-73466828D01*
X100536801Y-73371825D01*
X100536796Y-73371823D01*
X100271161Y-73314039D01*
X100171182Y-73306887D01*
X100126780Y-73295187D01*
X98970315Y-72745267D01*
X98935884Y-72720964D01*
X97793223Y-71578303D01*
X122128802Y-71578303D01*
X122340539Y-71680269D01*
X122598339Y-71759791D01*
X122865109Y-71800000D01*
X123134891Y-71800000D01*
X123401660Y-71759791D01*
X123659457Y-71680270D01*
X123871193Y-71578303D01*
X130128802Y-71578303D01*
X130340539Y-71680269D01*
X130598339Y-71759791D01*
X130865109Y-71800000D01*
X131134891Y-71800000D01*
X131401660Y-71759791D01*
X131659457Y-71680270D01*
X131871195Y-71578302D01*
X131000000Y-70707107D01*
X130128802Y-71578303D01*
X123871193Y-71578303D01*
X123871195Y-71578302D01*
X123000000Y-70707107D01*
X122128802Y-71578303D01*
X97793223Y-71578303D01*
X96214920Y-70000000D01*
X121194952Y-70000000D01*
X121215113Y-70269026D01*
X121275146Y-70532049D01*
X121373708Y-70783178D01*
X121423489Y-70869402D01*
X121423490Y-70869403D01*
X122207897Y-70084995D01*
X122300000Y-70084995D01*
X122340682Y-70250046D01*
X122419680Y-70400566D01*
X122532405Y-70527806D01*
X122672305Y-70624371D01*
X122831249Y-70684651D01*
X122957660Y-70700000D01*
X123042340Y-70700000D01*
X123168751Y-70684651D01*
X123327695Y-70624371D01*
X123467595Y-70527806D01*
X123580320Y-70400566D01*
X123659318Y-70250046D01*
X123700000Y-70084995D01*
X123700000Y-70000000D01*
X123707106Y-70000000D01*
X124576509Y-70869403D01*
X124576510Y-70869403D01*
X124626291Y-70783179D01*
X124724853Y-70532049D01*
X124784886Y-70269026D01*
X124805047Y-70000000D01*
X124805047Y-69999999D01*
X129194952Y-69999999D01*
X129215113Y-70269026D01*
X129275146Y-70532049D01*
X129373708Y-70783178D01*
X129423489Y-70869402D01*
X129423490Y-70869403D01*
X130207898Y-70084995D01*
X130300000Y-70084995D01*
X130340682Y-70250046D01*
X130419680Y-70400566D01*
X130532405Y-70527806D01*
X130672305Y-70624371D01*
X130831249Y-70684651D01*
X130957660Y-70700000D01*
X131042340Y-70700000D01*
X131168751Y-70684651D01*
X131327695Y-70624371D01*
X131467595Y-70527806D01*
X131580320Y-70400566D01*
X131659318Y-70250046D01*
X131700000Y-70084995D01*
X131700000Y-70000000D01*
X131707107Y-70000000D01*
X132576509Y-70869403D01*
X132576510Y-70869403D01*
X132626291Y-70783179D01*
X132724853Y-70532049D01*
X132784886Y-70269026D01*
X132805047Y-69999999D01*
X132784886Y-69730973D01*
X132724853Y-69467950D01*
X132626291Y-69216820D01*
X132576509Y-69130595D01*
X131707107Y-69999999D01*
X131707107Y-70000000D01*
X131700000Y-70000000D01*
X131700000Y-69915005D01*
X131659318Y-69749954D01*
X131580320Y-69599434D01*
X131467595Y-69472194D01*
X131327695Y-69375629D01*
X131168751Y-69315349D01*
X131042340Y-69300000D01*
X130957660Y-69300000D01*
X130831249Y-69315349D01*
X130672305Y-69375629D01*
X130532405Y-69472194D01*
X130419680Y-69599434D01*
X130340682Y-69749954D01*
X130300000Y-69915005D01*
X130300000Y-70084995D01*
X130207898Y-70084995D01*
X130292893Y-70000000D01*
X129423489Y-69130596D01*
X129373706Y-69216822D01*
X129275147Y-69467950D01*
X129215113Y-69730973D01*
X129194952Y-69999999D01*
X124805047Y-69999999D01*
X124784886Y-69730973D01*
X124724853Y-69467950D01*
X124626291Y-69216820D01*
X124576509Y-69130595D01*
X123707106Y-69999999D01*
X123707106Y-70000000D01*
X123700000Y-70000000D01*
X123700000Y-69915005D01*
X123659318Y-69749954D01*
X123580320Y-69599434D01*
X123467595Y-69472194D01*
X123327695Y-69375629D01*
X123168751Y-69315349D01*
X123042340Y-69300000D01*
X122957660Y-69300000D01*
X122831249Y-69315349D01*
X122672305Y-69375629D01*
X122532405Y-69472194D01*
X122419680Y-69599434D01*
X122340682Y-69749954D01*
X122300000Y-69915005D01*
X122300000Y-70084995D01*
X122207897Y-70084995D01*
X122292892Y-70000000D01*
X122292893Y-70000000D01*
X121423489Y-69130596D01*
X121373706Y-69216822D01*
X121275147Y-69467950D01*
X121215113Y-69730973D01*
X121194952Y-70000000D01*
X96214920Y-70000000D01*
X94636616Y-68421696D01*
X122128803Y-68421696D01*
X123000000Y-69292893D01*
X123000001Y-69292893D01*
X123871196Y-68421697D01*
X123871195Y-68421696D01*
X130128803Y-68421696D01*
X131000000Y-69292893D01*
X131000001Y-69292893D01*
X131871196Y-68421697D01*
X131871195Y-68421695D01*
X131659460Y-68319730D01*
X131401660Y-68240208D01*
X131134891Y-68200000D01*
X130865109Y-68200000D01*
X130598339Y-68240208D01*
X130340539Y-68319730D01*
X130128803Y-68421695D01*
X130128803Y-68421696D01*
X123871195Y-68421696D01*
X123871195Y-68421695D01*
X123659460Y-68319730D01*
X123401660Y-68240208D01*
X123134891Y-68200000D01*
X122865109Y-68200000D01*
X122598339Y-68240208D01*
X122340539Y-68319730D01*
X122128803Y-68421695D01*
X122128803Y-68421696D01*
X94636616Y-68421696D01*
X92214919Y-65999999D01*
X125294731Y-65999999D01*
X125313777Y-66254154D01*
X125370492Y-66502637D01*
X125463608Y-66739891D01*
X125591038Y-66960607D01*
X125591041Y-66960612D01*
X125749950Y-67159877D01*
X125936783Y-67333232D01*
X126147366Y-67476805D01*
X126376996Y-67587389D01*
X126620542Y-67662513D01*
X126872565Y-67700500D01*
X127127435Y-67700500D01*
X127379458Y-67662513D01*
X127623004Y-67587389D01*
X127852634Y-67476805D01*
X128063217Y-67333232D01*
X128250050Y-67159877D01*
X128408959Y-66960612D01*
X128536393Y-66739888D01*
X128629508Y-66502637D01*
X128686222Y-66254157D01*
X128705268Y-66000000D01*
X128686222Y-65745843D01*
X128629508Y-65497363D01*
X128536393Y-65260112D01*
X128408959Y-65039388D01*
X128250050Y-64840123D01*
X128063217Y-64666768D01*
X127852634Y-64523195D01*
X127623004Y-64412611D01*
X127379458Y-64337487D01*
X127127435Y-64299500D01*
X126872565Y-64299500D01*
X126620542Y-64337487D01*
X126376996Y-64412611D01*
X126147366Y-64523195D01*
X126113929Y-64545992D01*
X125936781Y-64666769D01*
X125749950Y-64840122D01*
X125749950Y-64840123D01*
X125623644Y-64998506D01*
X125591038Y-65039392D01*
X125463608Y-65260108D01*
X125370492Y-65497362D01*
X125313777Y-65745845D01*
X125294731Y-65999999D01*
X92214919Y-65999999D01*
X91517567Y-65302647D01*
X91515412Y-65300438D01*
X91455059Y-65236947D01*
X91406640Y-65203246D01*
X91399118Y-65197575D01*
X91353405Y-65160300D01*
X91326440Y-65146215D01*
X91313019Y-65138084D01*
X91288049Y-65120705D01*
X91288048Y-65120704D01*
X91288046Y-65120703D01*
X91233845Y-65097443D01*
X91225336Y-65093402D01*
X91173053Y-65066092D01*
X91167126Y-65064396D01*
X91143798Y-65057721D01*
X91129020Y-65052459D01*
X91101058Y-65040460D01*
X91043272Y-65028583D01*
X91034128Y-65026338D01*
X90977421Y-65010113D01*
X90947075Y-65007802D01*
X90931534Y-65005622D01*
X90901742Y-64999500D01*
X90901741Y-64999500D01*
X90842758Y-64999500D01*
X90833344Y-64999142D01*
X90824198Y-64998445D01*
X90774524Y-64994663D01*
X90774523Y-64994663D01*
X90774522Y-64994663D01*
X90744349Y-64998506D01*
X90728683Y-64999500D01*
X75314354Y-64999500D01*
X75276358Y-64993535D01*
X73903126Y-64551482D01*
X73871272Y-64535902D01*
X73852634Y-64523195D01*
X73852632Y-64523194D01*
X73623004Y-64412611D01*
X73379458Y-64337487D01*
X73127435Y-64299500D01*
X72872565Y-64299500D01*
X72620542Y-64337487D01*
X72376996Y-64412611D01*
X72147366Y-64523195D01*
X72113929Y-64545992D01*
X71936781Y-64666769D01*
X71749950Y-64840122D01*
X71749950Y-64840123D01*
X71623644Y-64998506D01*
X71591038Y-65039392D01*
X71463608Y-65260108D01*
X71370492Y-65497362D01*
X71313777Y-65745845D01*
X71294731Y-66000000D01*
X58010500Y-66000000D01*
X58010500Y-63578303D01*
X68128802Y-63578303D01*
X68340539Y-63680269D01*
X68598339Y-63759791D01*
X68865109Y-63800000D01*
X69134891Y-63800000D01*
X69401660Y-63759791D01*
X69659457Y-63680270D01*
X69871193Y-63578303D01*
X76128802Y-63578303D01*
X76340539Y-63680269D01*
X76598339Y-63759791D01*
X76865109Y-63800000D01*
X77134891Y-63800000D01*
X77401660Y-63759791D01*
X77659457Y-63680270D01*
X77871195Y-63578302D01*
X77000000Y-62707107D01*
X76128802Y-63578303D01*
X69871193Y-63578303D01*
X69871195Y-63578302D01*
X69000000Y-62707107D01*
X68128802Y-63578303D01*
X58010500Y-63578303D01*
X58010500Y-61999999D01*
X67194952Y-61999999D01*
X67215113Y-62269026D01*
X67275146Y-62532049D01*
X67373708Y-62783178D01*
X67423489Y-62869402D01*
X67423490Y-62869403D01*
X68207898Y-62084995D01*
X68300000Y-62084995D01*
X68340682Y-62250046D01*
X68419680Y-62400566D01*
X68532405Y-62527806D01*
X68672305Y-62624371D01*
X68831249Y-62684651D01*
X68957660Y-62700000D01*
X69042340Y-62700000D01*
X69168751Y-62684651D01*
X69327695Y-62624371D01*
X69467595Y-62527806D01*
X69580320Y-62400566D01*
X69659318Y-62250046D01*
X69700000Y-62084995D01*
X69700000Y-62000001D01*
X69707107Y-62000001D01*
X70576509Y-62869403D01*
X70576510Y-62869403D01*
X70626291Y-62783179D01*
X70724853Y-62532049D01*
X70784886Y-62269026D01*
X70805047Y-62000000D01*
X75194952Y-62000000D01*
X75215113Y-62269026D01*
X75275146Y-62532049D01*
X75373708Y-62783178D01*
X75423489Y-62869402D01*
X76207897Y-62084995D01*
X76300000Y-62084995D01*
X76340682Y-62250046D01*
X76419680Y-62400566D01*
X76532405Y-62527806D01*
X76672305Y-62624371D01*
X76831249Y-62684651D01*
X76957660Y-62700000D01*
X77042340Y-62700000D01*
X77168751Y-62684651D01*
X77327695Y-62624371D01*
X77467595Y-62527806D01*
X77580320Y-62400566D01*
X77659318Y-62250046D01*
X77700000Y-62084995D01*
X77700000Y-61999999D01*
X77707107Y-61999999D01*
X78576509Y-62869403D01*
X78576510Y-62869403D01*
X78626291Y-62783179D01*
X78724853Y-62532049D01*
X78732168Y-62500000D01*
X95595146Y-62500000D01*
X95614536Y-62771089D01*
X95672306Y-63036657D01*
X95767284Y-63291306D01*
X95850036Y-63442854D01*
X95850037Y-63442854D01*
X96746593Y-62546298D01*
X96776616Y-62716567D01*
X96846059Y-62877553D01*
X96950756Y-63018185D01*
X97085062Y-63130882D01*
X97241739Y-63209568D01*
X97412338Y-63250000D01*
X97457107Y-63250000D01*
X96557144Y-64149961D01*
X96557144Y-64149962D01*
X96708694Y-64232715D01*
X96963342Y-64327693D01*
X97228910Y-64385463D01*
X97500000Y-64404853D01*
X97771089Y-64385463D01*
X98036654Y-64327694D01*
X98291307Y-64232713D01*
X98442854Y-64149962D01*
X98442854Y-64149961D01*
X97542893Y-63250000D01*
X97543684Y-63250000D01*
X97674139Y-63234752D01*
X97838891Y-63174787D01*
X97985373Y-63078445D01*
X98105688Y-62950918D01*
X98193350Y-62799082D01*
X98243634Y-62631123D01*
X98248840Y-62541733D01*
X99149961Y-63442854D01*
X99149962Y-63442854D01*
X99232713Y-63291307D01*
X99327694Y-63036654D01*
X99385463Y-62771089D01*
X99404853Y-62500000D01*
X100595146Y-62500000D01*
X100614536Y-62771089D01*
X100672306Y-63036657D01*
X100767284Y-63291306D01*
X100850036Y-63442854D01*
X100850037Y-63442854D01*
X101746593Y-62546298D01*
X101776616Y-62716567D01*
X101846059Y-62877553D01*
X101950756Y-63018185D01*
X102085062Y-63130882D01*
X102241739Y-63209568D01*
X102412338Y-63250000D01*
X102457107Y-63250000D01*
X101557144Y-64149961D01*
X101557144Y-64149962D01*
X101708694Y-64232715D01*
X101963342Y-64327693D01*
X102228910Y-64385463D01*
X102500000Y-64404853D01*
X102771089Y-64385463D01*
X103036654Y-64327694D01*
X103291307Y-64232713D01*
X103442854Y-64149962D01*
X103442854Y-64149961D01*
X102871196Y-63578303D01*
X122128802Y-63578303D01*
X122340539Y-63680269D01*
X122598339Y-63759791D01*
X122865109Y-63800000D01*
X123134891Y-63800000D01*
X123401660Y-63759791D01*
X123659457Y-63680270D01*
X123871193Y-63578303D01*
X130128802Y-63578303D01*
X130340539Y-63680269D01*
X130598339Y-63759791D01*
X130865109Y-63800000D01*
X131134891Y-63800000D01*
X131401660Y-63759791D01*
X131659457Y-63680270D01*
X131871195Y-63578302D01*
X131000000Y-62707107D01*
X130128802Y-63578303D01*
X123871193Y-63578303D01*
X123871195Y-63578302D01*
X123000000Y-62707107D01*
X122128802Y-63578303D01*
X102871196Y-63578303D01*
X102542893Y-63250000D01*
X102543684Y-63250000D01*
X102674139Y-63234752D01*
X102838891Y-63174787D01*
X102985373Y-63078445D01*
X103105688Y-62950918D01*
X103193350Y-62799082D01*
X103243634Y-62631123D01*
X103248840Y-62541733D01*
X104149961Y-63442854D01*
X104149962Y-63442854D01*
X104232713Y-63291307D01*
X104327694Y-63036654D01*
X104385463Y-62771089D01*
X104404853Y-62500000D01*
X104385463Y-62228910D01*
X104335667Y-61999999D01*
X121194952Y-61999999D01*
X121215113Y-62269026D01*
X121275146Y-62532049D01*
X121373708Y-62783178D01*
X121423489Y-62869402D01*
X121423490Y-62869403D01*
X122207897Y-62084995D01*
X122300000Y-62084995D01*
X122340682Y-62250046D01*
X122419680Y-62400566D01*
X122532405Y-62527806D01*
X122672305Y-62624371D01*
X122831249Y-62684651D01*
X122957660Y-62700000D01*
X123042340Y-62700000D01*
X123168751Y-62684651D01*
X123327695Y-62624371D01*
X123467595Y-62527806D01*
X123580320Y-62400566D01*
X123659318Y-62250046D01*
X123700000Y-62084995D01*
X123700000Y-62000000D01*
X123707106Y-62000000D01*
X124576509Y-62869403D01*
X124576510Y-62869403D01*
X124626291Y-62783179D01*
X124724853Y-62532049D01*
X124784886Y-62269026D01*
X124805047Y-61999999D01*
X129194952Y-61999999D01*
X129215113Y-62269026D01*
X129275146Y-62532049D01*
X129373708Y-62783178D01*
X129423489Y-62869402D01*
X129423490Y-62869403D01*
X130207897Y-62084995D01*
X130300000Y-62084995D01*
X130340682Y-62250046D01*
X130419680Y-62400566D01*
X130532405Y-62527806D01*
X130672305Y-62624371D01*
X130831249Y-62684651D01*
X130957660Y-62700000D01*
X131042340Y-62700000D01*
X131168751Y-62684651D01*
X131327695Y-62624371D01*
X131467595Y-62527806D01*
X131580320Y-62400566D01*
X131659318Y-62250046D01*
X131700000Y-62084995D01*
X131700000Y-61999999D01*
X131707107Y-61999999D01*
X132576509Y-62869403D01*
X132576510Y-62869403D01*
X132626291Y-62783179D01*
X132724853Y-62532049D01*
X132784886Y-62269026D01*
X132805047Y-61999999D01*
X132784886Y-61730973D01*
X132724853Y-61467950D01*
X132626291Y-61216820D01*
X132576509Y-61130595D01*
X131707107Y-61999998D01*
X131707107Y-61999999D01*
X131700000Y-61999999D01*
X131700000Y-61915005D01*
X131659318Y-61749954D01*
X131580320Y-61599434D01*
X131467595Y-61472194D01*
X131327695Y-61375629D01*
X131168751Y-61315349D01*
X131042340Y-61300000D01*
X130957660Y-61300000D01*
X130831249Y-61315349D01*
X130672305Y-61375629D01*
X130532405Y-61472194D01*
X130419680Y-61599434D01*
X130340682Y-61749954D01*
X130300000Y-61915005D01*
X130300000Y-62084995D01*
X130207897Y-62084995D01*
X130292893Y-61999999D01*
X130292893Y-61999998D01*
X129423489Y-61130595D01*
X129373706Y-61216822D01*
X129275147Y-61467950D01*
X129215113Y-61730973D01*
X129194952Y-61999999D01*
X124805047Y-61999999D01*
X124784886Y-61730973D01*
X124724853Y-61467950D01*
X124626291Y-61216820D01*
X124576509Y-61130595D01*
X123707106Y-61999999D01*
X123707106Y-62000000D01*
X123700000Y-62000000D01*
X123700000Y-61915005D01*
X123659318Y-61749954D01*
X123580320Y-61599434D01*
X123467595Y-61472194D01*
X123327695Y-61375629D01*
X123168751Y-61315349D01*
X123042340Y-61300000D01*
X122957660Y-61300000D01*
X122831249Y-61315349D01*
X122672305Y-61375629D01*
X122532405Y-61472194D01*
X122419680Y-61599434D01*
X122340682Y-61749954D01*
X122300000Y-61915005D01*
X122300000Y-62084995D01*
X122207897Y-62084995D01*
X122292892Y-62000000D01*
X122292893Y-62000000D01*
X121423489Y-61130596D01*
X121373706Y-61216822D01*
X121275147Y-61467950D01*
X121215113Y-61730973D01*
X121194952Y-61999999D01*
X104335667Y-61999999D01*
X104327693Y-61963342D01*
X104232715Y-61708694D01*
X104149961Y-61557144D01*
X103253405Y-62453700D01*
X103223384Y-62283433D01*
X103153941Y-62122447D01*
X103049244Y-61981815D01*
X102914938Y-61869118D01*
X102758261Y-61790432D01*
X102587662Y-61750000D01*
X102542894Y-61750000D01*
X103442854Y-60850037D01*
X103442854Y-60850036D01*
X103291306Y-60767284D01*
X103036657Y-60672306D01*
X102771089Y-60614536D01*
X102500000Y-60595146D01*
X102228910Y-60614536D01*
X101963342Y-60672306D01*
X101708690Y-60767286D01*
X101557144Y-60850035D01*
X101557144Y-60850037D01*
X102457107Y-61750000D01*
X102456316Y-61750000D01*
X102325861Y-61765248D01*
X102161109Y-61825213D01*
X102014627Y-61921555D01*
X101894312Y-62049082D01*
X101806650Y-62200918D01*
X101756366Y-62368877D01*
X101751159Y-62458266D01*
X100850037Y-61557144D01*
X100850035Y-61557144D01*
X100767286Y-61708690D01*
X100672306Y-61963342D01*
X100614536Y-62228910D01*
X100595146Y-62500000D01*
X99404853Y-62500000D01*
X99385463Y-62228910D01*
X99327693Y-61963342D01*
X99232715Y-61708694D01*
X99149961Y-61557144D01*
X98253405Y-62453700D01*
X98223384Y-62283433D01*
X98153941Y-62122447D01*
X98049244Y-61981815D01*
X97914938Y-61869118D01*
X97758261Y-61790432D01*
X97587662Y-61750000D01*
X97542894Y-61750000D01*
X98442854Y-60850037D01*
X98442854Y-60850036D01*
X98291306Y-60767284D01*
X98036657Y-60672306D01*
X97771089Y-60614536D01*
X97500000Y-60595146D01*
X97228910Y-60614536D01*
X96963342Y-60672306D01*
X96708690Y-60767286D01*
X96557144Y-60850035D01*
X96557144Y-60850037D01*
X97457107Y-61750000D01*
X97456316Y-61750000D01*
X97325861Y-61765248D01*
X97161109Y-61825213D01*
X97014627Y-61921555D01*
X96894312Y-62049082D01*
X96806650Y-62200918D01*
X96756366Y-62368877D01*
X96751159Y-62458266D01*
X95850037Y-61557144D01*
X95850035Y-61557144D01*
X95767286Y-61708690D01*
X95672306Y-61963342D01*
X95614536Y-62228910D01*
X95595146Y-62500000D01*
X78732168Y-62500000D01*
X78784886Y-62269026D01*
X78805047Y-62000000D01*
X78784886Y-61730973D01*
X78724853Y-61467950D01*
X78626291Y-61216820D01*
X78576509Y-61130595D01*
X77707107Y-61999998D01*
X77707107Y-61999999D01*
X77700000Y-61999999D01*
X77700000Y-61915005D01*
X77659318Y-61749954D01*
X77580320Y-61599434D01*
X77467595Y-61472194D01*
X77327695Y-61375629D01*
X77168751Y-61315349D01*
X77042340Y-61300000D01*
X76957660Y-61300000D01*
X76831249Y-61315349D01*
X76672305Y-61375629D01*
X76532405Y-61472194D01*
X76419680Y-61599434D01*
X76340682Y-61749954D01*
X76300000Y-61915005D01*
X76300000Y-62084995D01*
X76207897Y-62084995D01*
X76292893Y-61999999D01*
X76292893Y-61999998D01*
X75423489Y-61130595D01*
X75373706Y-61216822D01*
X75275147Y-61467950D01*
X75215113Y-61730973D01*
X75194952Y-62000000D01*
X70805047Y-62000000D01*
X70805047Y-61999999D01*
X70784886Y-61730973D01*
X70724853Y-61467950D01*
X70626291Y-61216820D01*
X70576509Y-61130595D01*
X69707107Y-61999999D01*
X69707107Y-62000001D01*
X69700000Y-62000001D01*
X69700000Y-61915005D01*
X69659318Y-61749954D01*
X69580320Y-61599434D01*
X69467595Y-61472194D01*
X69327695Y-61375629D01*
X69168751Y-61315349D01*
X69042340Y-61300000D01*
X68957660Y-61300000D01*
X68831249Y-61315349D01*
X68672305Y-61375629D01*
X68532405Y-61472194D01*
X68419680Y-61599434D01*
X68340682Y-61749954D01*
X68300000Y-61915005D01*
X68300000Y-62084995D01*
X68207898Y-62084995D01*
X68292893Y-62000000D01*
X67423489Y-61130596D01*
X67373706Y-61216822D01*
X67275147Y-61467950D01*
X67215113Y-61730973D01*
X67194952Y-61999999D01*
X58010500Y-61999999D01*
X58010500Y-60209500D01*
X58030185Y-60142461D01*
X58082989Y-60096706D01*
X58134500Y-60085500D01*
X68283644Y-60085500D01*
X68350683Y-60105185D01*
G37*
%TD.AperFunction*%
%TA.AperFunction,Conductor*%
G36*
X95456266Y-113680211D02*
G01*
X95463399Y-113685623D01*
X95464999Y-113691528D01*
X95464999Y-114673471D01*
X95461572Y-114681744D01*
X95456265Y-114684789D01*
X93857543Y-115103795D01*
X93848672Y-115102577D01*
X93843773Y-115096965D01*
X93465862Y-114186985D01*
X93465854Y-114178035D01*
X93843773Y-113268033D01*
X93850110Y-113261708D01*
X93857542Y-113261204D01*
X95456266Y-113680211D01*
G37*
%TD.AperFunction*%
%TA.AperFunction,Conductor*%
G36*
X81330686Y-132638507D02*
G01*
X82816067Y-132783966D01*
X82823965Y-132788182D01*
X82826625Y-132795609D01*
X82826625Y-133775985D01*
X82823198Y-133784258D01*
X82817909Y-133787298D01*
X81622021Y-134102699D01*
X81613147Y-134101495D01*
X81612803Y-134101287D01*
X80511933Y-133408143D01*
X80506758Y-133400835D01*
X80508266Y-133392008D01*
X80510232Y-133389643D01*
X81321648Y-132641551D01*
X81330052Y-132638464D01*
X81330686Y-132638507D01*
G37*
%TD.AperFunction*%
%TA.AperFunction,Conductor*%
G36*
X133677849Y-132641114D02*
G01*
X133678347Y-132641546D01*
X133833943Y-132785000D01*
X134489763Y-133389640D01*
X134493522Y-133397767D01*
X134490434Y-133406173D01*
X134488066Y-133408143D01*
X133387196Y-134101287D01*
X133378369Y-134102795D01*
X133377978Y-134102699D01*
X132182091Y-133787298D01*
X132174966Y-133781875D01*
X132173375Y-133775985D01*
X132173375Y-132795609D01*
X132176802Y-132787336D01*
X132183932Y-132783966D01*
X133669284Y-132638510D01*
X133677849Y-132641114D01*
G37*
%TD.AperFunction*%
%TA.AperFunction,Conductor*%
G36*
X79677586Y-125140965D02*
G01*
X79678695Y-125141868D01*
X80491521Y-125891261D01*
X80495280Y-125899388D01*
X80492192Y-125907794D01*
X80491384Y-125908589D01*
X79657008Y-126653875D01*
X79648555Y-126656830D01*
X79647144Y-126656664D01*
X78162517Y-126389731D01*
X78154980Y-126384895D01*
X78152887Y-126378216D01*
X78152887Y-125397934D01*
X78156314Y-125389661D01*
X78162688Y-125386389D01*
X79668868Y-125138925D01*
X79677586Y-125140965D01*
G37*
%TD.AperFunction*%
%TA.AperFunction,Conductor*%
G36*
X99989276Y-124799160D02*
G01*
X99997508Y-124802682D01*
X100000839Y-124810724D01*
X100016801Y-126189839D01*
X100013470Y-126198151D01*
X100010126Y-126200540D01*
X98676142Y-126834875D01*
X98667199Y-126835333D01*
X98662845Y-126832582D01*
X97967417Y-126137154D01*
X97963990Y-126128881D01*
X97965124Y-126123857D01*
X98599459Y-124789870D01*
X98606105Y-124783872D01*
X98610155Y-124783197D01*
X99989276Y-124799160D01*
G37*
%TD.AperFunction*%
%TA.AperFunction,Conductor*%
G36*
X73655283Y-65002745D02*
G01*
X75191886Y-65497388D01*
X75198710Y-65503184D01*
X75200000Y-65508524D01*
X75200000Y-66491475D01*
X75196573Y-66499748D01*
X75191885Y-66502612D01*
X73655285Y-66997253D01*
X73646360Y-66996526D01*
X73641880Y-66992477D01*
X73003120Y-66006360D01*
X73001499Y-65997553D01*
X73003118Y-65993642D01*
X73641881Y-65007521D01*
X73649254Y-65002442D01*
X73655283Y-65002745D01*
G37*
%TD.AperFunction*%
%TA.AperFunction,Conductor*%
G36*
X120496365Y-76940389D02*
G01*
X121227933Y-77197253D01*
X121234603Y-77203226D01*
X121235756Y-77208291D01*
X121235756Y-78191156D01*
X121232329Y-78199429D01*
X121227248Y-78202412D01*
X120319343Y-78459886D01*
X120310449Y-78458846D01*
X120307034Y-78455963D01*
X120100699Y-78199429D01*
X119705702Y-77708333D01*
X119703188Y-77699740D01*
X119706698Y-77692579D01*
X120484369Y-76943003D01*
X120492704Y-76939730D01*
X120496365Y-76940389D01*
G37*
%TD.AperFunction*%
%TA.AperFunction,Conductor*%
G36*
X126210896Y-125752014D02*
G01*
X127101065Y-126448458D01*
X127336111Y-126632351D01*
X127340516Y-126640148D01*
X127339575Y-126646360D01*
X127004993Y-127391164D01*
X126998477Y-127397307D01*
X126990745Y-127397510D01*
X125586616Y-126946905D01*
X125579786Y-126941114D01*
X125578659Y-126937739D01*
X125528778Y-126646360D01*
X125496653Y-126458704D01*
X125498635Y-126449972D01*
X125499906Y-126448464D01*
X126195415Y-125752955D01*
X126203687Y-125749529D01*
X126210896Y-125752014D01*
G37*
%TD.AperFunction*%
%TA.AperFunction,Conductor*%
G36*
X133935187Y-84104359D02*
G01*
X135358227Y-84827940D01*
X135364048Y-84834744D01*
X135364374Y-84840774D01*
X135122253Y-85993344D01*
X135117199Y-86000736D01*
X135113367Y-86002355D01*
X133974694Y-86258086D01*
X133965871Y-86256555D01*
X133961721Y-86252012D01*
X133224402Y-84815202D01*
X133223674Y-84806279D01*
X133226537Y-84801591D01*
X133921613Y-84106515D01*
X133929885Y-84103089D01*
X133935187Y-84104359D01*
G37*
%TD.AperFunction*%
%TA.AperFunction,Conductor*%
G36*
X133935187Y-96104359D02*
G01*
X135358227Y-96827940D01*
X135364048Y-96834744D01*
X135364374Y-96840774D01*
X135122253Y-97993344D01*
X135117199Y-98000736D01*
X135113367Y-98002355D01*
X133974694Y-98258086D01*
X133965871Y-98256555D01*
X133961721Y-98252012D01*
X133224402Y-96815202D01*
X133223674Y-96806279D01*
X133226537Y-96801591D01*
X133921613Y-96106515D01*
X133929885Y-96103089D01*
X133935187Y-96104359D01*
G37*
%TD.AperFunction*%
%TA.AperFunction,Conductor*%
G36*
X87678975Y-116485068D02*
G01*
X87680155Y-116486449D01*
X88548545Y-117679421D01*
X88550786Y-117686307D01*
X88550787Y-118666884D01*
X88547360Y-118675157D01*
X88539087Y-118678584D01*
X88535801Y-118678113D01*
X86594817Y-118110038D01*
X86587839Y-118104425D01*
X86586874Y-118095523D01*
X86587281Y-118094362D01*
X86963109Y-117184654D01*
X86965651Y-117180851D01*
X87662431Y-116485055D01*
X87670704Y-116481635D01*
X87678975Y-116485068D01*
G37*
%TD.AperFunction*%
%TA.AperFunction,Conductor*%
G36*
X118560791Y-124251322D02*
G01*
X119173385Y-124684185D01*
X119808005Y-125132611D01*
X119812784Y-125140184D01*
X119812067Y-125146631D01*
X119504616Y-125891239D01*
X119498291Y-125897578D01*
X119490806Y-125898084D01*
X118040770Y-125513934D01*
X118033650Y-125508503D01*
X118032684Y-125506374D01*
X117847956Y-124959620D01*
X117848555Y-124950685D01*
X117850765Y-124947605D01*
X118545767Y-124252603D01*
X118554039Y-124249177D01*
X118560791Y-124251322D01*
G37*
%TD.AperFunction*%
%TA.AperFunction,Conductor*%
G36*
X98676142Y-73165124D02*
G01*
X100010126Y-73799458D01*
X100016126Y-73806105D01*
X100016801Y-73810159D01*
X100000839Y-75189275D01*
X99997317Y-75197508D01*
X99989275Y-75200839D01*
X98610159Y-75216801D01*
X98601847Y-75213470D01*
X98599459Y-75210128D01*
X97965124Y-73876142D01*
X97964666Y-73867199D01*
X97967415Y-73862847D01*
X98662846Y-73167416D01*
X98671118Y-73163990D01*
X98676142Y-73165124D01*
G37*
%TD.AperFunction*%
%TA.AperFunction,Conductor*%
G36*
X114463663Y-81690349D02*
G01*
X114851360Y-81757000D01*
X115964282Y-81948329D01*
X115971855Y-81953108D01*
X115974000Y-81959860D01*
X115974000Y-82940139D01*
X115970573Y-82948412D01*
X115964282Y-82951670D01*
X114463663Y-83209650D01*
X114454929Y-83207674D01*
X114450150Y-83200101D01*
X114449981Y-83198143D01*
X114449000Y-82450000D01*
X114449981Y-81701863D01*
X114453419Y-81693596D01*
X114461696Y-81690180D01*
X114463663Y-81690349D01*
G37*
%TD.AperFunction*%
%TA.AperFunction,Conductor*%
G36*
X66331126Y-125138924D02*
G01*
X67837310Y-125386389D01*
X67844918Y-125391112D01*
X67847113Y-125397934D01*
X67847113Y-126378216D01*
X67843686Y-126386489D01*
X67837483Y-126389731D01*
X66352854Y-126656664D01*
X66344105Y-126654756D01*
X66342990Y-126653875D01*
X66034380Y-126378216D01*
X65508614Y-125908587D01*
X65504728Y-125900522D01*
X65507683Y-125892069D01*
X65508470Y-125891268D01*
X66321304Y-125141867D01*
X66329710Y-125138780D01*
X66331126Y-125138924D01*
G37*
%TD.AperFunction*%
M02*
