M48
; DRILL file {KiCad 7.0.2} date Sun Jul  9 20:18:42 2023
; FORMAT={-:-/ absolute / metric / decimal}
; #@! TF.CreationDate,2023-07-09T20:18:42+08:00
; #@! TF.GenerationSoftware,Kicad,Pcbnew,7.0.2
; #@! TF.FileFunction,Plated,1,2,PTH
FMAT,2
METRIC
; #@! TA.AperFunction,Plated,PTH,ComponentDrill
T1C0.762
; #@! TA.AperFunction,Plated,PTH,ComponentDrill
T2C0.800
; #@! TA.AperFunction,Plated,PTH,ComponentDrill
T3C0.900
; #@! TA.AperFunction,Plated,PTH,ComponentDrill
T4C1.000
; #@! TA.AperFunction,Plated,PTH,ComponentDrill
T5C1.200
; #@! TA.AperFunction,Plated,PTH,ComponentDrill
T6C1.400
; #@! TA.AperFunction,Plated,PTH,ComponentDrill
T7C1.500
%
G90
G05
T1
X111.95Y-82.45
X114.45Y-82.45
T2
X89.8Y-122.99
X89.8Y-130.61
X109.8Y-86.92
X109.8Y-97.08
T3
X89.8Y-135.0
X89.8Y-137.54
T4
X66.715Y-87.432
X68.215Y-85.682
X70.465Y-83.682
X86.965Y-117.182
X90.465Y-115.932
X91.215Y-81.932
X93.465Y-114.182
X98.015Y-88.182
X99.115Y-89.983
X101.215Y-97.432
T5
X73.0Y-66.0
X119.88Y-86.0
X119.88Y-92.0
X119.88Y-98.0
X119.88Y-104.0
X119.88Y-110.0
X119.88Y-116.0
X127.0Y-66.0
X135.12Y-86.0
X135.12Y-92.0
X135.12Y-98.0
X135.12Y-104.0
X135.12Y-110.0
X135.12Y-116.0
T6
X69.0Y-62.0
X69.0Y-70.0
X77.0Y-62.0
X77.0Y-70.0
X123.0Y-62.0
X123.0Y-70.0
X131.0Y-62.0
X131.0Y-70.0
T7
X95.3Y-75.2
X95.3Y-79.0
X95.3Y-121.0
X95.3Y-124.8
X97.5Y-62.5
X97.5Y-137.5
X100.0Y-75.2
X100.0Y-79.0
X100.0Y-121.0
X100.0Y-124.8
X102.5Y-62.5
X102.5Y-137.5
X104.7Y-75.2
X104.7Y-79.0
X104.7Y-121.0
X104.7Y-124.8
T1
G00X64.801Y-125.9
M15
G01X66.198Y-125.9
M16
G05
G00X64.801Y-131.4
M15
G01X66.198Y-131.4
M16
G05
G00X72.301Y-127.4
M15
G01X73.698Y-127.4
M16
G05
G00X79.801Y-125.9
M15
G01X81.198Y-125.9
M16
G05
G00X79.801Y-133.4
M15
G01X81.198Y-133.4
M16
G05
G00X118.801Y-125.9
M15
G01X120.198Y-125.9
M16
G05
G00X118.801Y-131.4
M15
G01X120.198Y-131.4
M16
G05
G00X119.766Y-77.325
M15
G01X119.634Y-78.075
M16
G05
G00X126.301Y-127.4
M15
G01X127.698Y-127.4
M16
G05
G00X133.802Y-125.9
M15
G01X135.198Y-125.9
M16
G05
G00X133.802Y-133.4
M15
G01X135.198Y-133.4
M16
G05
T0
M30
